/* XPM */
static char *result[] = {
/* columns rows colors chars-per-pixel */
"64 64 245 2 ",
"   c #040202",
".  c #090106",
"X  c #010C01",
"o  c #090C06",
"O  c #0C020C",
"+  c #0C0C0B",
"@  c #05050A",
"#  c #12010E",
"$  c #110D0C",
"%  c #011301",
"&  c #021B02",
"*  c #0C140A",
"=  c #0C1C0B",
"-  c #091808",
";  c #12140E",
":  c #131D0C",
">  c #161B08",
",  c #0D0B12",
"<  c #0A0A14",
"1  c #140113",
"2  c #1A0016",
"3  c #130C14",
"4  c #1A0B16",
"5  c #1C011B",
"6  c #1B0C1A",
"7  c #15071A",
"8  c #0C1A15",
"9  c #141412",
"0  c #131C13",
"q  c #1A1B14",
"w  c #1C131B",
"e  c #151B1B",
"r  c #1C1C1B",
"t  c #171517",
"y  c #22021C",
"u  c #260A1D",
"i  c #241A1C",
"p  c #321C1E",
"a  c #022302",
"s  c #022B01",
"d  c #0B230B",
"f  c #0C2A0A",
"g  c #082708",
"h  c #13230D",
"j  c #16240A",
"k  c #063505",
"l  c #143A0E",
"z  c #092614",
"x  c #132413",
"c  c #1B2314",
"v  c #132A14",
"b  c #15221A",
"n  c #1B231B",
"m  c #1C2B1B",
"M  c #182D17",
"N  c #193618",
"B  c #23231D",
"V  c #24281B",
"C  c #292515",
"Z  c #1D0123",
"A  c #1B1723",
"S  c #230124",
"D  c #2B0024",
"F  c #240D24",
"G  c #25002B",
"H  c #2C002C",
"J  c #2C0C2B",
"K  c #280C27",
"L  c #32002D",
"P  c #34052A",
"I  c #231323",
"U  c #241B24",
"Y  c #291B26",
"T  c #2A152B",
"R  c #2B1C2B",
"E  c #281629",
"W  c #34172D",
"Q  c #2C0331",
"!  c #2D0D31",
"~  c #330234",
"^  c #34013B",
"/  c #3A083B",
"(  c #2D1831",
")  c #331D34",
"_  c #3B1D3B",
"`  c #381637",
"'  c #1C2722",
"]  c #143524",
"[  c #232222",
"{  c #2C232B",
"}  c #2D2C2C",
"|  c #262926",
" . c #32292D",
".. c #2C332B",
"X. c #2A382A",
"o. c #33362C",
"O. c #2D2934",
"+. c #332333",
"@. c #332B33",
"#. c #3C223B",
"$. c #382A3B",
"%. c #343433",
"&. c #3B3A3B",
"*. c #383837",
"=. c #2D3531",
"-. c #401A3B",
";. c #420B3C",
":. c #41253D",
">. c #423A3E",
",. c #184417",
"<. c #14400F",
"1. c #2B4927",
"2. c #31472C",
"3. c #295827",
"4. c #384736",
"5. c #375836",
"6. c #31562B",
"7. c #246824",
"8. c #386837",
"9. c #387738",
"0. c #31632E",
"q. c #20461F",
"w. c #42463D",
"e. c #40533F",
"r. c #41773D",
"t. c #42613F",
"y. c #3E1743",
"u. c #3D0B40",
"i. c #3D3642",
"p. c #3E2241",
"a. c #461A48",
"s. c #571959",
"d. c #500C51",
"f. c #4B2C4B",
"g. c #452746",
"h. c #463847",
"j. c #4E2B52",
"k. c #582658",
"l. c #583758",
"z. c #4F3250",
"x. c #60395E",
"c. c #5C1763",
"v. c #661968",
"b. c #711A6D",
"n. c #6B1873",
"m. c #731973",
"M. c #5C3761",
"N. c #5D2660",
"B. c #672668",
"V. c #673967",
"C. c #6D2A72",
"Z. c #782879",
"A. c #743673",
"S. c #3E4842",
"D. c #3E5A41",
"F. c #474747",
"G. c #514B4E",
"H. c #4A5648",
"J. c #51574E",
"K. c #574557",
"L. c #595858",
"P. c #4B4B53",
"I. c #61525E",
"U. c #476646",
"Y. c #54654E",
"T. c #586957",
"R. c #5A7757",
"E. c #487546",
"W. c #616D5E",
"Q. c #6A4768",
"!. c #734B6C",
"~. c #685968",
"^. c #764778",
"/. c #775476",
"(. c #6E4971",
"). c #666866",
"_. c #687868",
"`. c #7A6A7A",
"'. c #757A75",
"]. c #717770",
"[. c #5E5C61",
"{. c #84517C",
"}. c #832B7F",
"|. c #40863B",
" X c #5D8758",
".X c #5B9558",
"XX c #5FA15C",
"oX c #6A876A",
"OX c #72886D",
"+X c #6C966B",
"@X c #73966E",
"#X c #7A8779",
"$X c #6E9871",
"%X c #779975",
"&X c #79A776",
"*X c #79B778",
"=X c #70A76F",
"-X c #61905A",
";X c #7CC27A",
":X c #82AB7C",
">X c #82B67F",
",X c #7D2D82",
"<X c #7E1E80",
"1X c #7D4B83",
"2X c #7F5180",
"3X c #882A87",
"4X c #922B93",
"5X c #8B2F90",
"6X c #854A88",
"7X c #835385",
"8X c #85558B",
"9X c #8A5989",
"0X c #8E5492",
"qX c #975898",
"wX c #954997",
"eX c #A15D9E",
"rX c #866385",
"tX c #897689",
"yX c #9A6798",
"uX c #957093",
"iX c #A2659E",
"pX c #A85AA9",
"aX c #B055AF",
"sX c #9D68A2",
"dX c #A865A8",
"fX c #B366AD",
"gX c #A671A8",
"hX c #AE63B3",
"jX c #B869B7",
"kX c #AD74B3",
"lX c #B872BA",
"zX c #9D56A2",
"xX c #C065BE",
"cX c #C56CBC",
"vX c #C773BE",
"bX c #BD6FC1",
"nX c #C46BC3",
"mX c #C566C2",
"MX c #C673C5",
"NX c #C45EC4",
"BX c #858685",
"VX c #889989",
"CX c #84B683",
"ZX c #8DAB91",
"AX c #B78EB0",
/* pixels */
"mXNXNXNXjXaXaXaXaXaXeXaXwXwXwXwXwX6X5X6X3X^.^.A.A.A.A.V.V.B.x.x.k.z.z.f.f.g.g.g.#.#.@.+.+.$.>.>.z.K.I.)._.'.#X%XZXoX% d d - c x ",
"3Xm.<Xm.Z.m.m.m.b.b.b.v.b.v.b.b.s.s.s.s.s.s.s.d.a.a.;./ -.;.` / ` W ! ( W ( T I E I I I I Y Y { {  .%.&.4.4.5.D.D.1.a & = m = = ",
"~ ~ ~ ~ Q H Q G D D D u D S y D D S S 5 7 y 5 y D S y 5 y y y y Z Z 5 2 Z 5 5 5 2 2 5 7 2 6 4 7 $ $ 4 ; % % % & & z a d - d = c ",
"dXdXdXyXsXyXyXrX9X9X9X9X7X7X7X{.^.^.^.^.^.Q.Q.V.x.l.l.l.l.z.z.f.f.g.g.g.g.$.#.$.) +.{ { { Y Y Y  . .>.w.H.T._.oX%XR.& z h % c : ",
"1X1X1X,X1X(.,X(.(.V.V.V.V.V.M.M.k.k.k.l.k.k.j.f.j.f.g.g.g.g.:.:.#.+.{ +.{ { { [ B i B r c r q n q i } o.4.e.U.Y.R.t.X d x % c : ",
"Q G G u.G G Q Q Q G G Z S S S Z S S S S 5 5 5 1 2 2 2 2 1 2 2 1 1 O O . O . . . $ . o   . X o o ; $ ; * - % % % X % & d - = * V ",
"5X5X5X,X,X,X,X,X,X<X,X,X,X<XZ.C.v.k.k.k.k.k.k.s.a.a.a.a.a.a.-.-._ _ _ ` _ ) ) ) T Y T I Y U I Y 9 ; ; q c | 2.4.T.D.x = * c ; ; ",
"hXhXhXpXhXpXaXzXzXzXwXwX6XwX0X,X{.^.^.(.^.V.Q.V.V.x.x.l.l.z.l.z.j.f.f.g.g.g.#.#.#.) +.) R R Y U p i q ; c X.H.T.BXT.% 0 0 o n q ",
"# u # 2 # y 2 y 5 1 # 2 # # . # 1 O 1 1 1 O # # 1 O O O # # O # O 1 O 1 1 1 # + O @ . + + $ ; $ $ $ + 9 9 : ; : - - 8 8 0 9 + [ ",
":.:.:.:._ :.` -.#.` W -.-.p W W ` ` ` ! ! J J J K J J F F u F 5 I I A F w 6 w 4 w w t t 9 9 9 ; t t 9 9 9 , 0 0 =.' o * r 0 0 0 ",
"kXlXjXjXfXfXaXfXpXpXzXwXqX0XqX0X6X6X6X1X6X^.1X^.A.A.A.V.V.V.V.V.j.j.f.f.f.g.g.:.#.) +.) ( R R Y i r r q 0 9 b m #X[.x * x * n 8 ",
"s.s.c.s.s.c.d.c.d.c.d.d.d.d.d.d.u.u.u./ / ^ ^ ^ ~ ~ ~ ~ ~ ~ Q Q ! J J J T F F F F F F i i w u t 9 * 9 = * * 0 x X.1.- d x % d - ",
"1 O 1 2 1 2 2 2 2 2 5 1 # # # . . O . . .   . . @ . . . . . . . O O O O O O o . o o o o o * $ o = = - = 8 = = d X & & a g a a g ",
"$ o + 9 3 @ w # # O O . .                                             . . o o o X   X   X X % % % X X % % % % % g & a - & a & s ",
"* o o 3 O . F.F.U 4 O 7 3 + + 9 4 4 4 6 6 6 6 w I i U U { { R { { { }  .o.o.%.o.o.*.*.2.4.4.4.4.4.5.5.5.D.5.5.D.5.8.8.8.E.r.8.8.",
"o *   < + O ].{.$.u O , t 8 , t w I U Y R { +. .$.$.$.i.h.h.h.F.F.G.G.J.J.L.L.[.).T.W._._._._.].oXoXOXOX%X$X%X%X%XCX$X*XCX=XCX*X",
"o X % * *   w 4 # # O @ @ X X     @ O @ @ @ O @ < @ @ @ O O O < + # o o $ + o $ * ; * * * * * = - - - d = g d a d g f k s k g k ",
"; o % X % @ Y F ` W F 7 < * o   @ @ @ @ @ O O < O O 1 < 3 3 3 7 9 9 9 t q q q q 9 0 0 n n n m V M M m M M c N N N N N <.N ,.,.q.",
"o o : X X u {.AXyX^.j.T 7 < w i U U Y U { O.O.+.$.i.$.h.h.h.P.P.G.G.G.L.L.L.T.[.W.).).)._.].].oXOXOXOX%X%X:X%X%X&X:X:X:X>X>XCXCX",
"$ o o @ < 4 g.l.k.a.u.G Z 7 4 7 7 3 7 4 6 6 w 6 6 6 i i A E E U { [ V | | } } } ......X.X.X.=.X.1.1.1.2.1.6.6.6.6.6.6.0.3.0.0.0.",
"; X % < 9 O S 5 y y D Z 2 4 # . O . . .     .   . . . . . . . . . .   o           X   X X X X X X X % % % & % % % & & & & & a a ",
"  % z % @ 7 !.gXeXwX6X(.l.z.:.{ i r i i U [ B {  . . .o.%.*.&.&.w.h.F.F.F.H.J.J.J.L.J.T.T.T.W.W._._._._._.oXoXoXoXoX+X$X$X$X&X$X",
"& % % X @ 4 x.9X6X6X1X(.M.z.W u $ 9 q q i i B [ C [ V | o.o.%.*.%.*.&.>.w.F.F.F.F.H.H.H.H.Y.J.Y.Y.Y.Y.T.R.R.R.R. XR. X X X.X X.X",
"- X % * t 1 P y L ~ G Z Z 5 y # # # # . . . . . . O . . . . .   . .   .             X     X X X X X % % % % % % % & & & & & & a ",
"# 4   7 Z Z N.5X}.}.Z.C.B.N.s.s.-._ ! K S K ! T ! ( ! ) ) ) #.$.+. . .@.%.*.*.*.*.4.&.4.4.w.4.H.5.5.5.5.8.8.8.8.9.9.9.9.9.9.9.9.",
"4 i < 7 5 J 6XlXcXjXhXdXqX0X{.!.l.z.g.y.#.y.p.p.p.h.i.f.z.z.z.h.K.K.L.K.I.L.I.I.).).W.).)._._._.oXoX+X+X+X$X=X$X=X$X=X=X*X*X*X;X",
"  +   o . O T P P P H D S y y 2 7 , O O @ O @ O @ + < @ + + * 9 # 3 1 4 7 4 9 9 , ; 9 ; 0 = 0 0 q 0 : c 0 h j h f f f k k k k k ",
"#.$.U O. .Y -.P ;.;./ / ` ` W W W T ( T R T ( E E E E I U U I U Y E T E Y Y U Y i U ' [ [ | | V [ V V V V m M M M N l l l <.<.<.",
"jXvXbXkXAXkXMXMXMXnXbXbXbXbXlXjXjXkXkXkXjXkXkXgXgXgXgXgXsXgXgXsXuXuXuXtXtXtXtXBXtXBXBXBXtX:XBXBX%X%X%XVX&X:X%X&X&X=X*X*X;X;X;X;X",
"3XZ.<XC.C.C.b.b.b.b.n.n.n.n.n.n.v.v.v.B.v.v.v.N.v.c.c.v.s.k.c.k.z.h.f.h.h.f.h.h.i.i.i.&.*.&.&.4.2.1.1.1.1.3.3.3.3.7.3.7.7.7.7.7.",
"d.;.Q G G Q Q L ;.L ~ ~ Q Q Q H H H H H H H H H S S y G S S D S 5 1 3 7 1 3 O O O O O @ @ o o o - & - & & & % & & a a a s s s s ",
"aXzXhXdXsXsXyXdXeXeXqXsXsXzXsXzXsXqXqXqXyXqXqX9X0XyX9XrXrX0XrXrXrX2X2XrX`.rX'.2X`.`.].`.].'.].].].]._.].].oXOXOXoX+X+X+X$X$X=X=X",
"0X0X9X9X9X9X9X9X7X9X7X7X7X7X7X7X1X8X8X1X1X1X2X^.1X1X/.^./.^.^././.~./.~.(.~.~.~.~.~.T.).).T.).T.W.T.R._.R.R.R.R.R.R. X X.X.X.X.X",
"H H L L G H H G ~ H H D H G D G G G G K G S S y Z Z Z Z Z Z Z 5 7 7 1 1 7 1 1 3 . . .   o   X   X X X X X % % & & a & & & & a s ",
"3X3X3X3X3X3X3X3X3X3X3X3X3X3X3X3X3XZ.Z.Z.,XZ.Z.Z.C.C.C.A.C.C.C.V.V.l.M.K.l.G.K.G.G.G.G.G.G.G.J.J.H.Y.H.U.w.e.t.t.8.t.8.r.E.E.r.9.",
"MXnXnXnXnXnXnXnXxXxXxXxXxXxXxXxXhXfXfXfXfXdXfXfXdXdXiXdXiXsXiXyXuXtXtXuXtXtXrXtXtXBX'.BX#X#X#X#X#X#X#X#X:X:X%X:X&X&X&X:X:X&XCXCX",
"~ H ! Q ! Q Q Q H Q Q Q Q H Q H D D u D y y y u u y u u u u u u F F F F I U U I U i n r r n n ' r A n c h g g s a k l <.l s l N ",
"a.a.y.a.y.a.a.y.y.y.y.y.y.u.y._ -.-.-.-.` / ` W W W W Y T K I W ! ! ! ! K K K F I A w w w w r w [ [ [ V V N N l q.l a s f a f & ",
"MXMXnXnXMXMXnXMXnXnXnXbXmXbXnXjXhXhXfXaXpXhXpXpXpXpXeXqXwX0X0X0X6X7X1X1X^.^.Q.(.M.K.l.l.K.l.K.K.Q.I.).).].OX%X:X:XR.f a f h V v ",
"m.m.m.m.m.m.n.m.m.m.m.m.b.n.m.n.m.n.m.v.n.c.n.c.c.c.c.c.c.c.c.s.s.d.a.a.d.a.a.a.y.y.y.` ) ) ) #.$.$.$.o.2.2.2.1.t.3.a f v - m 0 ",
"~ ~ ~ ~ ~ L L L H L H H L L G G H Q Q H Q Q Q G H G G S G G G G S S S S D S S 5 F F 4 6 6 6 7 7 6 6 4 3 * & & a & s a M j d 0 n ",
"yXyXuXsXyXyXyXyXyXyXyXyXyXyXyXyXyX9XrX9X7X2X2X/./.{./././.~.~.Q.Q.Q.Q.K.K.K.K.K.h.h.h.i.&.%.@.@.$.$.h.F.H.T._.oX%XY.f - j V n 0 ",
"9X8X8X1X8X2X9X8X0X8X7X7X7X8X1X1X7X{.{.{.{././.{.!.!.!.!.Q.Q.Q.Q.K.K.K.G.z.F.z.F.h.*.*.%.%.%.%...$.$.>.F.H.J.Y.Y.oXU.f d d m n n ",
"u.^ u.^ u.^ u.^ u.^ ^ ^ ~ ~ u.^ D P P D P P D D D D y D D S D y S 2 2 2 2 4 7 1 7 3 3 4 9 4 3 3 4 t r q 9 > = & % g & m m x = b ",
"4X4X4X4X4X4X4X4X4X4X4X3X4X4X4X3X5X3X3X,X}.Z.Z.Z.Z.}.Z.Z.Z.C.C.C.B.l.k.k.k.k.j.a.g.a.g.a.p.y.y.+.{ [ [ r ' ..4.S.Y.D.v v d x x M ",
"mXmXcXxXbXmXbXmXxXxXxXxXxXxXxXjXpXhXpXpXpXpXeXeXqXqXqX0X0X0X6X6X^.^.^.^.^.(.(.V.M.M.l.l.z.z.g.h.$.o.| | ..4.H.T.VXW.M = = d v v ",
"W J J J J J H J J J J J D J J D J J J K J K J K K I I I u i A F F I F I u i I i U r w w r w 9 9 0 0 0 0 8 0 n m ' M % M M v d a ",
"-.-.:._ #._ -._ :.-._ _ _ _ _ _ _ #._ _ _ _ ) ) ) ) ) ( ( R R T R Y Y Y U Y Y U U U i ' n [ [ [ n n n b n b b b ] X.d M z g z M ",
"vXvXvXvXlXlXMXvXcXcXbXkXbXbXjXjXjXhXhXfXdXhXdXdXqXeXqXqXqX0X0X9X7X/./.!.(.Q.Q.Q.K.K.K.l.z.h.h.h.%.....} ' n ' X.#XT.M d = M v z ",
"Z.Z.B.V.C.B.Z.b.b.b.B.C.B.C.b.n.B.B.B.B.B.B.c.N.N.N.k.s.s.k.s.k.f.g.g.g.g.:.#.#._ #.#.) ) ) R R | ' ' [ n b m ' 4.4.d z z m M z ",
"6 9 $ + < < A u u 7 3 < < < 7 7 , , , 3 @ , + , , 3 4 3 , , , 3 4 4 4 4 4 4 w 9 U w q r r r n n r e n n b 0 8 x 8 x - x v v f z ",
"x b M ] z d 0 * b b z z z 8 z x 0 0 0 h : 0 0 0 0 = 8 = = 0 d = * $ ; ; ; : 0 9 * * - > - = - - = = = 0 0 d d = & g a g g g a a ",
"t r e b 8 A >.>.Y A e 8 8 ' A A i U [ U [ [ { { | O. .} @.@.%.@.o.X.X.o.o.2.2.2.2.4.2.5.4.5.5.4.5.6.6.6.5.5.5.0.0.8.8.0.8.8.9.9.",
"B B 0 0 e =.I.~.+.R U ' ] O.| | } } } %.*.*.*.&.>.h.h.F.F.G.G.G.J.J.J.Y.T.Y.T.T._.R.R._.oXoXoXoX%X@X%X%X%X&X&X&X&X*X*X=X*X;X*XCX",
"> > j j h : C p i > > - & d j > > j > h q j c c h h C c C n V B r ' B [ [ | | | x n m m m m ' ] x N M M N N X.N ] N q.l q.,.,.,.",
"j j j j : q { p p p B c j > j j j c h h h h x d c c c q q q c q U [ [ [ [ [ ' n | [ m | ' m ' ' m | N N N N N l l l ,.k ,.<.<.,.",
"e ' b e A U !.uX!.x.i.' A ' O.O.O.| =.=.i.i.i.&.i.S.F.P.P.P.P.L.L.L.L.[.~.).).).).).].].].'.OXOX@X+X@X@X@X%X%X=X&X&X*X=X*X*X;X>X",
"n z 8 8 ' R K.x.j.:.y.( O.A A A O.| O.' ' O.O.O.i.p.O.O.i.p.i.$.$.&.*.&.&.i.*.i.S.S.S.S.S.S.S.S.5.5.5.5.8.8.8.8.8.9.8.9.9.9.9.9.",
"z z z ] ' < R S D F A A e e b e 0 0 0 9 e 8 A r 8 8 t e < A r q e = 0 * 8 x z 8 - - & & z - z - = - & d - a s s s a s s s s k s ",
"g k z z b ' ).{./.~.K.P.S.4.=.| ..| ..} =.=.=.=.&.=.*.S.4.S.F.F.F.H.H.H.H.H.J.U.Y.Y.T.T.E.T.R.R._._._._._.oXoXoXoX+XoX+X+XXX+X=X",
"s k f v x A ~.rX(.(.K.i.i.i.O.' | | } o.o.o.o.o.%.*.4.4.w.w.w.w.w.e.e.H.H.H.U.H.Y.Y.Y.Y.Y.T.R.R.R.R.R.R. X X X X.X.X.XXXXXXXXXXX",
"f f f v n O W D ~ ^ ! K ( A I A w e > i i i q r 0 9 q > : q > q q 0 ; 0 b 0 x c = = = = g d = g a s s s s s s s s k k k k k k <.",
"v x 8 b { ` V.A.A.C.N.M.l.f.f.#.$.%.@.+.}  .@.%.%.@.%.%.*.&.*.*.h.&.w.>.F.h.4.h.P.H.P.D.H.H.H.H.U.U.U.t.r.U.r.r.r.9.|.|.|.|.|.|.",
"h m n ' u -.{.cXpXeX0X1X1X(.Q.Q.z.h.i.i.&.i.i.F.h.F.h.G.P.P.P.L.L.L.I.I.).).).).).)._.].].'.'.OXOX+X+X$X%X@X&X=X=X*XXX;X=X;X;X;X"
};
