/* XPM */
static char *result[] = {
/* columns rows colors chars-per-pixel */
"64 64 211 2 ",
"   c #1F0F0B",
".  c #1F100C",
"X  c #1C151B",
"o  c #1E1315",
"O  c #200F0B",
"+  c #22120D",
"@  c #29170F",
"#  c #29180F",
"$  c #241511",
"%  c #291710",
"&  c #2C1B14",
"*  c #291C1C",
"=  c #251817",
"-  c #321D13",
";  c #301E18",
":  c #2E201D",
">  c #372116",
",  c #382215",
"<  c #35221A",
"1  c #3C261A",
"2  c #3E281D",
"3  c #191623",
"4  c #191A2C",
"5  c #1A1928",
"6  c #1A1D32",
"7  c #171B30",
"8  c #231D26",
"9  c #1C2135",
"0  c #1F2538",
"q  c #25222F",
"w  c #2D2327",
"e  c #342622",
"r  c #3A2923",
"t  c #32272A",
"y  c #33292C",
"u  c #3C2D2B",
"i  c #342826",
"p  c #252739",
"a  c #342C34",
"s  c #322E3B",
"d  c #3C3232",
"f  c #3D353B",
"g  c #3A353D",
"h  c #3F312B",
"j  c #422A1C",
"k  c #482E1E",
"l  c #432E24",
"z  c #443027",
"x  c #4C3324",
"c  c #44322B",
"v  c #4D372B",
"b  c #503624",
"n  c #553A27",
"m  c #533A2B",
"M  c #593E2B",
"N  c #433533",
"B  c #483A39",
"V  c #533D32",
"C  c #523F39",
"Z  c #5E412D",
"A  c #5D4435",
"S  c #54423B",
"D  c #57433A",
"F  c #64442D",
"G  c #68482F",
"H  c #664831",
"J  c #6D4C32",
"K  c #634A3A",
"L  c #684C37",
"P  c #714F34",
"I  c #6C503D",
"U  c #745236",
"Y  c #755438",
"T  c #292E43",
"R  c #262C42",
"E  c #2B324A",
"W  c #2C3144",
"Q  c #3F3942",
"!  c #36384B",
"~  c #373E55",
"^  c #2F3851",
"/  c #443D43",
"(  c #413E4B",
")  c #493E41",
"_  c #3B445C",
"`  c #3A4358",
"'  c #3D4662",
"]  c #464046",
"[  c #44424D",
"{  c #4B4349",
"}  c #554643",
"|  c #574846",
" . c #594A46",
".. c #564949",
"X. c #444453",
"o. c #4C4A55",
"O. c #464A5D",
"+. c #4C4C5C",
"@. c #474757",
"#. c #544D54",
"$. c #5B5155",
"%. c #5B545C",
"&. c #4F505F",
"*. c #624D43",
"=. c #665246",
"-. c #6A554A",
";. c #7B5E47",
":. c #745A47",
">. c #665958",
",. c #7E6452",
"<. c #796559",
"1. c #6D625F",
"2. c #444B63",
"3. c #494F65",
"4. c #444E6B",
"5. c #4D5165",
"6. c #4B536C",
"7. c #46516E",
"8. c #525362",
"9. c #5C5761",
"0. c #51556A",
"q. c #565A6E",
"w. c #5D5D6C",
"e. c #5A5966",
"r. c #4B5673",
"t. c #4C5876",
"y. c #4E5A79",
"u. c #475371",
"i. c #535B73",
"p. c #5D5F72",
"a. c #525D7B",
"s. c #505770",
"d. c #645E66",
"f. c #5E6172",
"g. c #5C627B",
"h. c #58627D",
"j. c #7A6C65",
"k. c #746966",
"l. c #616173",
"z. c #61657B",
"x. c #676878",
"c. c #746E74",
"v. c #797378",
"b. c #6A6368",
"n. c #846E5D",
"m. c #87705F",
"M. c #867161",
"N. c #8E7A6B",
"B. c #897364",
"V. c #867B77",
"C. c #94867D",
"Z. c #96887E",
"A. c #566383",
"S. c #5A6584",
"D. c #5E6B8C",
"F. c #5B6786",
"G. c #5F6D91",
"H. c #636A83",
"J. c #626D8C",
"K. c #656A80",
"L. c #6D7385",
"P. c #69728D",
"I. c #737B8C",
"U. c #7B7B87",
"Y. c #616E91",
"T. c #667293",
"R. c #677599",
"E. c #68779B",
"W. c #69789D",
"Q. c #687392",
"!. c #737C92",
"~. c #767E96",
"^. c #807D84",
"/. c #798299",
"(. c #7C808F",
"). c #7683A2",
"_. c #8A8587",
"`. c #928C8C",
"'. c #968B86",
"]. c #9D918A",
"[. c #868C99",
"{. c #898C98",
"}. c #938F90",
"|. c #8B919E",
" X c #989599",
".X c #A19B98",
"XX c #A09A97",
"oX c #818DA7",
"OX c #8993A9",
"+X c #9B9DA4",
"@X c #969CA8",
"#X c #8B97B1",
"$X c #919CB3",
"%X c #9DA1A8",
"&X c #9AA5B9",
"*X c #A3A3A6",
"=X c #A9A6A8",
"-X c #AAAAAD",
";X c #A6A6AB",
":X c #A3AAB6",
">X c #ADB3BC",
",X c #B2B6BD",
"<X c #B3B8BE",
"1X c #A9B3C3",
"2X c #B3B9C2",
"3X c #B6BECA",
"4X c #A5AFC0",
"5X c #B9C2CD",
"6X c #B7C1CD",
"7X c #BBC5D0",
"8X c None",
/* pixels */
"8X8X8X8X8X+ O O O               O O O O O O O + O + O O O + O O O + O O O     O O O + O +   O           O     O +   O 8X8X8X8X8X",
"8X8X8X8X8XO $ + + $ $ $ O $ $ + $ O O + + + O O + + + + O O $ + + + O $ $ $ O $ + O + + + $ + $ + $ + + + + + + + + $ 8X8X8X8X8X",
"8X8X8X8XO % % = = = * * 8 * * * * * * % = $ % % $ $ % % % % % & % % $ $ % $ $ % @ % % % = = = * 8 * * 8 * * & = = % $ O 8X8X8X8X",
"8X8X8X@ & & ; ; ; t y a a s a a t t w ; ; ; & & & & & ; & & & ; & & - & & - & & & & & * * e y y a a a a a t t : * ; & & % 8X8X8X",
"8X8X@ @ - - ; r u N / ( ( ( ( ~ / / u t 1 - , , - 1 - - - j - - , < < - < - < , - , < 1 r d g / ( [ X.( ~ / f u r < ; - & @ 8X8X",
"+ + @ # - < r c B ) @.5.0.0.0.8.+.( ) N l j j k j j j j j l j j j j j j j j j j j j j l N / { +.8.0.0.6.&.o.) B c l < - @ @ + O ",
"  + @ & , j z C ) %.q.z.H.H.H.K.p.9.#.) v x k k x k x x x x x x x x b x x x x x x x x v C #.9.p.z.J.J.F.z.w.$.} B l 2 , & @ + + ",
". + @ & , l m D $.b.L.!.~.).W.!.L.x.>.*.M n n b n n n n b n n n n n n n b n n b n b m D  .>.x.L.!.~.~.~.!.K.b.$.D m j , - @ + O ",
"O O @ - j z V *.1.c.^.oXoX#X#X).^.U.c.=.K M Z Z Z M Z Z Z Z Z Z Z Z M F Z Z Z Z Z F Z H -.b.v.(.oX).#X#XoX^.v.>.*.V x 1 - @ + O ",
"O @ @ - j b K -.j.V.{.@X&X&X&X$X|.^.v.<.*.H G G F G G H G G G G G G G H G G G F F F H I ,.v._.OX$X&X&X$X$X{.V.k.-.K b j - @ + O ",
"O $ @ - j b H :.M.^.+X:X4X4X1X:X+X}.N.n.:.J G J P J J L J J J J J J J J J J J J J G J :.<.V.`.%X4X1X4X4X:X X_.M.:.K m j , % + + ",
"O O - - l n G :.B.'.*X>X1X3X3X4X;XXXV.m.n.G P P P P U P U U U U I P U U U P P U U U U :.n.C. X;X4X3X3X2X>X*X'.B.,.I m j , % +   ",
"O + & - k M P n.N.'.=X,X3X3X3X3X-X.XZ.m.n.Y U U P U U Y Y Y Y Y Y Y Y U Y U U U U U Y ;.m.C..X-X2X3X3X3X,X=X].N.n.I M k , & + O ",
"+ + - - k M *.n.N.].=X,X3X3X3X2X-X.XZ.m.Y Y U U U U Y Y Y Y Y Y Y Y Y Y Y U U U U U Y ;.m.C..X-X2X3X7X3X,X=X].N.;.I M k - & + O ",
"O @ & - k M G n.N.].=X2X3X7X3X3X-X.XN.n.;.U U U U Y U Y Y Y Y Y Y Y Y Y Y Y Y U U U Y ;.m.Z..X-X2X3X7X3X<X=X].N.,.I M k - % + O ",
"O $ - - l M J n.N.].=X2X3X7X7X2X-X.XZ.n.n.Y U U U Y Y Y Y Y Y U Y Y Y Y Y Y Y U U U Y ;.m.Z..X-X2X7X7X3X<X=X].B.n.I M k , & + O ",
"O O & - x M I n.N.].=X,X3X5X5X<X-X.XZ.m.n.Y U U U U Y Y Y U Y Y Y U U Y Y Y U U P P J n.m.Z..X-X2X5X7X3X<X=X].N.n.J M k - % @ O ",
"O + % j k M G n.N.].=X,X3X5X5X<X-X.XZ.m.Y Y U U U U Y U Y Y Y Y Y Y Y Y Y Y U U U P P Y m.Z..X-X2X3X5X3X<X=X].N.n.J M k , & + O ",
"O + & - l M L n.N.].=X,X3X5X5X<X-X.X^.m.n.Y U U U U U Y Y Y Y Y Y U U Y U U U U U U U n.m.Z..X-X2X3X5X3X<X=X].N.;.L M k - & + O ",
"O + % - k M L ;.N.].=X,X3X5X3X<X-X.XZ.B.Y Y U U U U U U U Y Y U Y Y Y Y Y U U U U U P n.N.N..X-X2X3X7X3X<X=X].N.n.H M l , % + O ",
"O + & , k M I n.N.].=X,X3X7X3X2X-X.XN.m.n.U U U U U Y Y Y U Y Y U Y U Y Y U Y U U U U n.m.N.=X-X2X5X5X3X<X=X].N.n.P M k , & + + ",
"O + % , k M G n.N.].=X2X3X7X5X2X-X.X].m.Y U U U U U U Y Y Y Y Y Y Y U Y Y Y U U U U U Y B.]..X-X<X5X5X5X,X=X].N.n.=.M k , % + O ",
"O $ % , l M J n.N.].=X,X5X7X7X2X-X.X].B.n.Y U U Y Y Y Y Y Y Y Y Y Y Y Y Y Y Y U U U Y n.B.N..X-X2X5X7X5X<X=X].N.n.F M k , % + O ",
"O + & - k M L ;.N.].=X2X5X7X3X2X-X.XN.m.Y Y U U U Y Y Y Y Y Y Y Y Y Y Y Y Y U U U U U Y N.^..X-X2X7X7X5X<X=X].N.n.J M k , & + O ",
"O + & - k n I n.B.].=X>X3X3X3X4X-XXXN.B.n.J J P P P P U U U U P Y U P P U P P P P P U n.n.N.XX;X2X3X3X3X>X=X].B.:.J M l - % + O ",
"O + % , j n H :.M.^.+X;X1X1X1X4X=X].V.n.Y P G G J J J J J J J J P P J G J J J J J J J :.n.N.}.%X:X1X1X1X:X*X^.n.;.A n j , % + O ",
"O $ % - j b H -.n.^. X@X&X4X&X&X@X^.V.:.=.G F G F F F F F F F F G F F F F F F F G F G L :.B.^. X&X&X&X&X@X X^.n.-.A b j - % + O ",
"O + % - 2 b V -.<.^.^.OX$X$X$X$X^.^.M.>.L Z F Z F F F F F Z F Z F F F F F F F F Z F F *.-.c.^.oXOX$X$X$X#X^.V.<.-.Z x 2 - % + + ",
"O + % - 1 l V *.>.c.^.^.#X).#X^.^.~.b.-.K Z Z Z F n Z A Z A H Z H F Z A F Z Z Z Z Z M K -.k.L.^.^.#X#XoX^.~.L.>.*.V l 2 - % + O ",
"+ + % - 1 l B *.9.b.P.!.W.W.W.~.Q.K.d.$.D D Z A Z F A A A A A A A A A A F F Z Z A Z C K $.d.K.P.W.^.W.W.~.L.b.9.*.C l 1 - % + O ",
"O + % ; l z ) ..9.l.H.Q.W.W.W.W.P.z.d.#. .) *.*.*.=.=.-.-.-.=.=.=.=.=.=.=.*.*.*.*.*.*.) $.w.K.H.W.W.W.W.Q.K.l.9.) ) c e ; % + O ",
"O + & w u ) ) 9.d.K.J.Q.W.W.W.W.J.K.p.d.9.>.>.1.<.k.n.k.n.k.j.j.j.j.c.M.k.n.k.k.1.>.9.%.d.l.F.Y.W.W.W.W.Q.J.x.l.%.#.B c w & + O ",
". + * t f { 8.f.x.J.T.T.R.R.R.R./.D.h.h.f.x.v.V._._.`.`.`.`.`.`.}.`.`.}.`.'._._.^.c.x.x.g.z.J.Y.T.R.R.R.T.T.J.z.f.&.[ f i * + . ",
". + * y Q o.q.h.J.J.T.R.T.R.R.T.A.A.(.(.L.I.(.|.|.+X%X%X%X%X%X%X%X+X%X*X*X+X+X+X[.(.L.H.J.P.J.T.T.R.R.R.T.T.P.J.g.q.o.Q y : + . ",
"  + * y Q O.0.f.F.J.J.D.G.G.G.G.D.A.h.z.h.L.(./.|.%X%X%X%X%X%X%X+X+X@X%X+X+X@X|.|.(.L.z.z.h.D.J.Y.G.Y.Y.J.J.J.g.g.e.o.Q y * $ . ",
". + * t f [ &.q.g.g.S.A.F.F.F.F.A.h.h.i.h.x.L.(./.|.|.|.|.[.[.[.[.[.OX{.OXOX[.[.(.L.z.f.h.h.h.h.S.F.F.S.S.S.h.h.q.&.` d t * . . ",
"+ + = w a f X.+.0.s.i.a.h.A.y.a.y.t.0.5.9.e.x.L.(.(.(./.(.I.L.L.L.L.(.(.I.(./.I.x.x.q.&.5.0.s.y.a.a.h.a.a.y.q.0.+.[ B a w = + + ",
". + % * y d / [ o.5.s.r.t.y.y.r.u.3.O.o.` o.e.f.x.z.z.z.h.f.q.q.q.q.i.z.x.H.K.z.f.e.&.o.o.+.5.6.t.y.y.y.t.s.5.o.X./ a i * $ + + ",
". + @ = : < d f ] [ 3.u.r.t.t.6.3.o.` S / ] o.e.q.i.y.s.3.2._ _ ` ` _ 5.6.i.f.s.0.o.` S ` ] O.3.u.r.t.r.6.3.@.] B a i : = @ + . ",
". . @ @ : : r d f ` O.6.r.t.r.7.3.[ ` f N N ] _ 3.3.2._ ~ ! W T W W ^ ` _ 2.2.3.o.] h d d ] @.2.u.r.r.r.7.O.` f d i : & # + + . ",
"+ + + + @ & < u f ` +.6.y.y.t.r.3.o.` S r h f ` 2.2.' ~ ^ T p 9 0 0 W ` ` _ ' O.o./ N h d ` [ &.r.y.y.t.r.O.` g i < > @ + + + + ",
"+ . + @ @ & < i B X.5.i.A.A.A.h.0.&.{ / h S } &.5.4.2.~ ^ R 0 6 0 0 0 ` _ ' 6.6.&.{ S h S { &.0.h.A.A.A.h.5.{ g y < # # + + + O ",
"+ . + + # & e d / o.i.S.D.G.G.F.f.e.o.S S S #.e.p.s.u.2.~ E R p 0 0 p ` ' t.t.f.q...S N S o.e.g.S.Y.G.D.h.q.+.S d e : # @ + + + ",
". + + @ # : < d ] +.g.D.T.R.R.D.h.f.$.S S S #.w.g.a.y.7.2.^ E T W R ` ' 6.y.h.h.w.#.S S } %.w.g.Y.T.R.T.D.h.&.] d < : # + + + O ",
"+ + + + # > < d ] 8.g.J.R.R.R.T.g.f.%...S S &.f.K.S.A.A.u.' ~ ~ ` ` ' u.y.A.F.z.f.$.S S ..%.f.H.J.R.W.R.J.g.&.] d < & @ + + + + ",
"+ + + + # : e d ] 8.g.P.R.E.R.T.z.f.%...S S $.f.S.H.F.F.A.r.u.4.' u.t.a.A.G.D.H.f.$.| S ..%.f.x.Q.R.W.R.J.g.8.] d : > @ @ + + O ",
"  + + # $ > e d ] 8.g.J.R.W.R.T.H.f.%. .S D $.f.K.J.Y.Y.A.A.A.r.y.a.h.F.G.D.D.z.f.$.S S ..%.f.H.Q.W.W.R.T.g.&.] d i : @ @ + +   ",
"  + + + # : e d ] 8.g.T.E.W.).Q.z.l.%. .S S $.w.l.S.F.J.F.A.p.A.h.A.A.D.D.D.z.z.w.$.S D | %.f.z.Q.W.W.R.Q.g.8.] h i > # + +   + ",
"+ + + # # > : h ] 8.g.T./.R.R.G.K.l.%.*.) D $.9.d.z.K.K.S.K.g.g.g.g.g.H.K.z.z.w.e.*.A C ) %.l.H.Q.R.W.R.J.g.8.] d r > # . + + . ",
"  + + + + : i d ] 8.g.J.Y.).).Y.K.p.%.) A C ) %.9.w.p.p.l.l.p.l.l.l.l.l.l.w.w.%.$. .C C *.%.l.K.Q.R.W.R.J.g.8.] d e & # + + + + ",
"  + + @ # > : d ] 8.g.J.R.R.R.G.H.l.9.*.V V ) *.$.%.%.%.9.9.9.9.9.9.9.9.9.%.%.$...C C C  .%.l.K.Q.W.W.R.J.g.&.] d r : # # + . + ",
"+ + + + # : e d ] &.g.J.R.R.).Y.H.l.9.) V V M C C *.)  . . . . . . .|  .|  .} C C V M C ) %.l.H.Q.R.W.R.P.g.&.] d e : @ + + + . ",
". + + @ # & e d ] &.h.J.R.W.R.Y.H.l.%.*.V m b m m m V V V V V m V V V V V m V m m m m V ) 9.l.H.T.R.W.R.J.g.5.] d < : # + + + . ",
"o . o + $ & e u ] &.h.J.R.R.W.R.H.l.9.) V b b b b b b b b b b b b b b b b b b b b b b V  .%.l.H.Q.R.W.R.J.g.&.] d : & $ + $ $ o ",
"o X = $ $ & : a / +.h.Y.R.R.).G.H.l.9.*.V b x b b b b b b b b b b b b b b b b x b b b V *.9.l.H.T.W.W.W.T.g.&.Q a : * $ . = o o ",
"X X X o o * : y Q +.h.G.R.R.).Y.H.l.9.) V b b b b b b b b b b b b b b b b b b b b b b V ) %.l.H.T.W.W.R.J.g.+.g y : = $ o X 3 X ",
"5 3 X X o = 8 t g O.i.J.T.R.R.T.K.w.%. .V x x x x b b b x b b b b x x x x x b x b b v V } %.p.K.Y.R.R.T.J.a.@.g y : = o X X 5 5 ",
"7 7 3 X o = 8 t g @.t.F.D.G.Y.F.g.q.+.) V x x x x x z x x x z x x x x x x x x x x z z V ) o.e.S.D.Y.Y.Y.S.s.X.Q w 8 X X X 3 4 7 ",
"8X7 5 3 X 3 8 t s ` 5.i.A.A.S.h.i.8.@./ N z z z l l l z l z z z z z z l z z c l l l z N ) o.8.i.a.S.A.A.a.3.~ s q 8 X X 3 5 7 8X",
"8X8X4 3 3 3 8 q p ! O.4.t.t.t.6.3.+.( B N u u u u u u u u u u u u u u u u c y z u u z N / ( @.3.u.t.t.r.4.2.! s q 8 X 3 5 7 8X8X",
"8X8X7 7 5 5 4 8 p T ^ _ ' ' ' ' ( ~ ! g a y y y t t y t y y y y y y y a t t t t y y y a s ! ~ ~ _ ' ' ' ~ ~ T p q 5 5 5 4 7 8X8X",
"8X8X7 4 7 7 4 6 6 R R E E E E T T T p p q q q q q q q q q q q q q q q q q q q q q q q q p p T E E E E E E R p 6 4 4 7 7 7 7 8X8X",
"6 6 7 7 6 6 6 6 6 6 6 0 6 0 6 6 9 6 9 9 6 6 6 6 6 6 6 6 6 6 6 6 6 6 6 6 6 6 6 6 6 6 9 6 q 6 6 0 6 0 6 6 9 9 6 6 6 6 6 6 6 7 6 6 ",
"6 6 6 8X8X8X8X8X8X8X8X8X8X8X8X8X8X8X8X8X8X8X8X8X8X8X8X8X8X8X8X8X8X8X8X8X8X8X8X8X8X8X8X8X8X8X8X8X8X8X8X8X8X8X8X8X8X8X8X8X8X6 6 6 "
};
