/* XPM */
static char *result[] = {
/* columns rows colors chars-per-pixel */
"14 14 9 1 ",
"  c #21110D",
". c #342319",
"X c #181C32",
"o c #242A3D",
"O c #503625",
"+ c #755338",
"@ c #677598",
"# c #B6BEC8",
"$ c None",
/* pixels */
"$$          $$",
"$ ##++++++## $",
" +          + ",
" +          + ",
" +          + ",
" O##++++++##O ",
" .@@O@oo@O@@. ",
" .@@O@oo@O@@. ",
" .@@O@oo@O@@. ",
" .@@O@@@@O@@. ",
" .@@OOOOOO@@. ",
"X @@OOOOOO@@ X",
"XXXXXXXXXXXXXX",
"$$XXXXXXXXXX$$"
};
