/* XPM */
static char *result[] = {
/* columns rows colors chars-per-pixel */
"64 64 199 2 ",
"   c #1C0B07",
".  c #1E0E0B",
"X  c #1F100C",
"o  c #1E1315",
"O  c #1C141B",
"+  c #22120D",
"@  c #29170E",
"#  c #29180F",
"$  c #241411",
"%  c #281711",
"&  c #261917",
"*  c #2D1C14",
"=  c #21171B",
"-  c #2C1E1C",
";  c #331E14",
":  c #301F19",
">  c #2E201D",
",  c #352017",
"<  c #34221A",
"1  c #3C261B",
"2  c #392317",
"3  c #1B1623",
"4  c #1D1924",
"5  c #161A2F",
"6  c #1A1A2B",
"7  c #191C32",
"8  c #221D27",
"9  c #1F2537",
"0  c #1F2639",
"q  c #22212F",
"w  c #2A242D",
"e  c #2E2120",
"r  c #342622",
"t  c #392721",
"y  c #372927",
"u  c #3C2B24",
"i  c #352A2B",
"p  c #392D2C",
"a  c #3E312E",
"s  c #212131",
"d  c #22263A",
"f  c #242A3D",
"g  c #2C2C3C",
"h  c #2A2834",
"j  c #332D35",
"k  c #3D3231",
"l  c #3B353C",
"z  c #33323D",
"x  c #462D1E",
"c  c #482F1F",
"v  c #442E22",
"b  c #482F20",
"n  c #412F29",
"m  c #4C3323",
"M  c #443229",
"N  c #4C3528",
"B  c #4E382B",
"V  c #503523",
"C  c #553A27",
"Z  c #583C27",
"A  c #543B2B",
"S  c #5A3D2A",
"D  c #433533",
"F  c #4C3B34",
"G  c #453B3B",
"H  c #4B3D39",
"J  c #433837",
"K  c #523D33",
"L  c #5E412C",
"P  c #4F413B",
"I  c #554137",
"U  c #5B4334",
"Y  c #55423B",
"T  c #5C493F",
"R  c #5A463B",
"E  c #61432D",
"W  c #624632",
"Q  c #634B3B",
"!  c #694E3D",
"~  c #664B37",
"^  c #6D523F",
"/  c #252B42",
"(  c #2D354B",
")  c #2B3347",
"_  c #313346",
"`  c #38394B",
"'  c #323A53",
"]  c #3B3F54",
"[  c #303650",
"{  c #443D44",
"}  c #3A435D",
"|  c #3E4863",
" . c #464046",
".. c #4D4343",
"X. c #4D464A",
"o. c #554643",
"O. c #564845",
"+. c #5B4A45",
"@. c #544A4B",
"#. c #5A4D4C",
"$. c #5C514E",
"%. c #454759",
"&. c #4C4D5D",
"*. c #484652",
"=. c #544E54",
"-. c #5A4F53",
";. c #5D5455",
":. c #5B535A",
">. c #58555D",
",. c #624D41",
"<. c #655043",
"1. c #6B5242",
"2. c #66554C",
"3. c #6B564B",
"4. c #6D594C",
"5. c #715C4E",
"6. c #615554",
"7. c #645956",
"8. c #6B5C54",
"9. c #645C5B",
"0. c #6B5D5B",
"q. c #715F55",
"w. c #6E6058",
"e. c #756358",
"r. c #424A65",
"t. c #424D69",
"y. c #46516E",
"u. c #4E546B",
"i. c #525160",
"p. c #5C5761",
"a. c #5D5965",
"s. c #5E5F6F",
"d. c #57596C",
"f. c #4A5572",
"g. c #4E5A79",
"h. c #515B77",
"j. c #5F5F70",
"k. c #515D7B",
"l. c #585F78",
"z. c #655E61",
"x. c #645F69",
"c. c #695E60",
"v. c #605F70",
"b. c #5C637C",
"n. c #5A617A",
"m. c #666163",
"M. c #686265",
"N. c #64626F",
"B. c #6E6A6E",
"V. c #6B6669",
"C. c #746863",
"Z. c #766B67",
"A. c #7B716E",
"S. c #606172",
"D. c #61657C",
"F. c #6A6977",
"G. c #706D72",
"H. c #767173",
"J. c #7C7473",
"K. c #7C797C",
"L. c #80736E",
"P. c #837B79",
"I. c #5B6583",
"U. c #5E6B8C",
"Y. c #596584",
"T. c #616780",
"R. c #636982",
"E. c #636E8D",
"W. c #6A728D",
"Q. c #797A85",
"!. c #606D90",
"~. c #667192",
"^. c #677599",
"/. c #68779B",
"(. c #68789D",
"). c #687392",
"_. c #727D99",
"`. c #817F83",
"'. c #7D8294",
"]. c #7584A5",
"[. c #7F89A1",
"{. c #838185",
"}. c #898486",
"|. c #85858B",
" X c #8A888D",
".X c #8B8C92",
"XX c #868A96",
"oX c #909196",
"OX c #92949B",
"+X c #8994AC",
"@X c #969AA4",
"#X c #949BAD",
"$X c #999EA7",
"%X c #8795B2",
"&X c #929FB6",
"*X c #838DA6",
"=X c #9CA5B3",
"-X c #98A4BA",
";X c None",
/* pixels */
";X;X;X;X;X;X;X;X;X            .       X X . X X X X X X . . + . . . X X X . . + X X   X X                   X ;X;X;X;X;X;X;X;X;X",
";X;X;X;X;X;X;X;X;X$ $ $ % % % $ $ $ $ $ @ + + + + + + + + + + $ $ + + + + + + + + @ + $ @ $ $ $ $ % $ & $ $ $ ;X;X;X;X;X;X;X;X;X",
";X;X;X;X;X;X;X;X;Xy y y y p i y r r r * * * * * * ; * * * * * * ; * * * ; * * * * * * * * < r y y p p y p y y ;X;X;X;X;X;X;X;X;X",
";X;X;X;X;X;X;X;Xk G X.@.@.@.@.X.o.H D M u 1 1 1 2 1 1 1 1 1 1 1 1 1 1 1 1 1 1 1 1 1 1 1 M J H ..@.@.@.@.X. .P k ;X;X;X;X;X;X;X;X",
";X;X;X;X;X;X;Xp P =.z.V.B.B.B.V.9.7.+.Y B m m b m m m m m m m m m m m m m m m m m c m B Y +.7.c.V.B.B.B.V.a.=.P p ;X;X;X;X;X;X;X",
";X;X;X;X;X;Xr a  .:.G.K.`.|.{.K.J.C.8.,.U Z C Z C C Z Z C C S Z C C Z C C C C C C C Z U ,.8.C.A.K.`.|.{.K.B.:.P k r ;X;X;X;X;X;X",
";X;X;X;X;X* r D ..m.K. X.XOXoX.X{.L.e.3.~ S L L S L L L E S E S L W E L L L S L L L L ~ 3.e.J.`. XOXOXoX XK.m.X.D r * ;X;X;X;X;X",
";X;X;X;X@ , u D @.w.K..XOX@XOX.X}.P.Z.4.~ W L E E E E E E E W E E E E E E E E E E E L ~ 4.Z.P.}.oXOXOXOX.XK.w.X.D u , @ ;X;X;X;X",
";X;X;X@ , 1 u F o.w.H.`.|.|. X'.K.Z.0.,.W S Z S S S S S S S S S S S S S S S S S S S S W ,.0.A.P.|.|..X|.`.H.9.o.F v 1 , @ ;X;X;X",
"  + * , 2 v B A Y #.;.m.m.V.m.w.7.-.+.K N b b b b b b b b b N b b b v m b b b b b b b N K o.#.9.z.M.M.M.z.7.+.R K m x 1 , @ + X ",
"+ $ * 2 x m A U I I P G l P l J D n n t < ; 2 ; : 2 ; 2 : 2 ; 2 , , , , : 2 ; ; ; ; : 2 t n n D J G G G G F K U U A m v 2 * + + ",
". + * 1 b C L L L m 1 > > > > > - : & & & % % % % % % % % & $ $ * % $ * % % % % % % % & & & - - - - - e < u B K L S C b 1 * + . ",
"X $ * 1 m C L L L m < % # + X + o + + $ + + + + + + + + + + + + $ . $ $ + + o + % + $ + $ + $ $ $ $ $ $ * ; m S E W C m 1 * + X ",
". + * 1 m Z L E A b , @ X X X X . . + . . . + . + . + + + . . o $ . X X X . X X . + . + . . . .   X   + % ; b S E S Z m 1 * + X ",
"X + * 1 m Z L L Z x , + X   X   . . . . . + . o . + . . . . X . . . . X X . . . . . . . . . . . .     X + ; b Z E S C m 2 * + X ",
"X X * x m Z E L L x , +           . . . . . . . . . . . o . . . . . . . X X X . + . . . . . .           + ; b S E E Z V 1 ; + X ",
"X + * 1 m Z L L Z v ; +           X   X X . X . . $ . . . X . X . . . . + . . . . . . . . . .         . + , x Z L L Z m 1 * @   ",
"X + * 2 V C L E Z v , +           X X X X . o . . . . . X X . . . o . . . . . . . . + . . . . .       X X , x L E L Z m 1 * + X ",
"X + ; x b Z E E L x > # + X X X X X X X + . . . . . . + X X X + + . . + + . + + + + . + . . . . X X X + # , v L E E Z m 1 * + + ",
"X + % 1 V Z L E L m , # # # X + X $ $ + + $ + + + + $ + $ + + + $ + + + + + + + + + + + $ $ + $ + + $ $ * < c L L L Z m 1 * + X ",
". $ ; 1 b C S W L N u > > > > > - * & * % % % % @ @ % $ % $ % $ $ * % % * % % % $ $ % % & % - - - - > > > 1 B L W L C b 1 * +   ",
". + % 2 b C S W Q I P P J G k l D n p 1 < , ; ; ; ; ; 2 , , 2 2 ; : ; ; ; ; ; ; ; ; ; t t u n D J J P l P P U R W S C v 2 * + + ",
". + % ; v V K ~ <.2.7.w.w.m.w.z.;.#.o.F N b b x x x c c b b b b b b m b x x x x x x b N K o.#.6.9.w.m.w.9.7.2.<.Q A m x 2 % + + ",
". $ % ; 1 b K Q 4.C.J.`.|.'.|.{.K.Z.q.,.U Z Z Z C Z Z Z S S S S S S S S Z Z Z C C Z S U ,.q.Z.P.'.{.|.'.K.J.C.4.Q A b 1 ; $ $ . ",
". + @ * 2 v B T 8.A.}.oX@X$X@XOX XP.Z.5.! E E W W W W W W W W W E W W W W W W W W E W ! 5.L.P..XOX@X@X@XOX}.A.8.,.A b < ; @ + X ",
"+ + @ % , x B +.8.J..X@X=X=X=X$XOX}.L.e.^ ~ ~ ^ ^ ! 1.! Q W U W W W W Q ,.<.! 1.! ! ~ ^ 5.L.`.OX$X=X=X=X@X XJ.w.+.B 1 , @ @ + X ",
". + @ @ ; 1 M Y 9.H..X#X-X-X-X-XOX}.L.e.1.! 1.3.3.2.3.,.,.+.R U K W +.,.2.2.3.3.3.! ! 1.q.L.}.OX#X=X-X=X#XXXH.7.Y M 1 , @ @ + X ",
". + + @ * < M Y ;.G.|.+X&X&X-X-XoX{.A.q.1.1.3.0.0.0.9.6.@.o.Y H { R o.#.-.0.0.0.8.3.! 1.q.L.`.OX#X-X-X=X+X'.G.;.P M < * @ + + X ",
"+ + + @ @ ; u G @.F.Q.[.%X%X[.[._.Q.V.7.,.,.2.c.x.x.x.>.*.{ G l l G { *.:.x.x.x.c.2.,.,.8.V.K.'.[.%X%X[.[._.N.@.H u , @ @ + + + ",
". + + @ * ; u J X.a.R._.].].].'.W.F.z.2.K ,.6.x.v.v.d.u.r.{ z g g z ` %.u.d.v.v.x.7.+.R +.m.F.W.'.].].].'.R.a.X.k t > * + + + + ",
"+ + + + % * y k  .i.b.~./.(.(.).F.v.:.O.K o.6.v.R.l.h.y.] ( / d f g ( | t.h.I.D.S.:.o.Y +.:.n.D.^.(.].(.~.b.i. .k y * * @ +   + ",
"+ . + @ @ * r k  .&.b.E.^.^./.E.R.s.:.O.o.o.:.v.T.I.h.y.} [ / 9 0 f ( | y.k.l.D.S.;.Y Y O.>.s.I.!.^.(.(.U.n.>. .k r * # + + + + ",
"X + + + # > r k { i.l.E.^././.E.T.d.:.O.H o.:.v.b.I.g.y.| ( f 0 0 f ( } y.g.n.b.v.:.o.{ ,.:.d.R.~.^./.^.E.l.i.{ D r * * + + + . ",
"+ + + @ # * r k { i.l.E.^././.~.R.s.:.O.Y R :.v.b.b.g.y.} ( f 0 d f ( } y.g.I.b.v.:.o.K ,.:.v.T.~././.^.E.l.i.{ k r * % @ + + + ",
"X + + + # * r k X.i.I.E.^.(./.~.T.v.:.O.Y o.:.v.D.b.g.y.} ) / 0 d f ( } y.h.b.b.v.6.,.R O.:.v.R.~././.^.E.I.a.{ k r - @ @ + X + ",
"X + + + # , r k { i.l.!.^.(./.~.R.x.:.+.Y o.6.S.b.b.g.t.} ) d 9 9 d ( } y.k.b.b.v.6.{ { O.:.v.R.~././.^.E.T.i.{ k r : % + + . + ",
"+ + + @ $ * r k { i.l.~.^././.~.R.j.>.+.K o.:.S.b.b.g.y.] ( d 9 0 0 ) } y.h.b.b.v.:.+.K O.:.x.R.~./.(.^.~.I.i.{ k r * # + + + + ",
"+ X + + * * r D X.i.l.!./././.~.T.j.:.O.Y o.:.v.D.b.k.y.| [ / f 0 f ( } y.h.b.b.v.:.+.K O.:.j.R.~././.^.E.l.i.{ k r , * @ + + X ",
"X + + @ @ * y k { i.D.E.^././.~.T.j.:.O.Y o.;.S.b.I.k.f.r.' ( / ) ) } | f.n.I.b.v.:.O.K O.:.v.R.~././.^.E.T.i.{ k r * @ + + X + ",
"+ + + + % : r k X.i.l.E./././.~.R.j.:.O.Y O.;.S.b.I.n.g.t.} ' [ ) } | | g.b.I.D.v.:.O.H O.:.v.R.~./././.E.l.i.{ k r * @ @ + + X ",
"X + + @ @ * r a X.i.I.!./././.~.R.v.:.O.K o.:.v.T.T.Y.Y.f.r.| ] } } | g.Y.Y.I.T.S.;.o.K O.:.v.R.~.^.^.^.E.b.i. .k r > # + + + + ",
"X + + + # * r k { i.v.~./.(./.~.R.v.:.O.o.o.:.v.T.R.U.Y.Y.g.f.y.y.f.g.Y.Y.U.I.D.v.:.o.R O.:.v.T.~.(.^.^.E.b.i. .k r > # + +   + ",
"+ + + + # > r k { i.l.E.^././.~.R.j.:.O.K +.-.x.T.E.E.!.U.Y.Y.Y.Y.Y.Y.U.E.E.R.D.v.:.o.K O.p.v.R.E.(.^.^.E.b.i. .k r , # @ + + + ",
"+ X + @ # , r k { i.D.~.^././.~.R.x.:.O.K { -.a.v.T.U.E.U.U.I.R.I.R.U.U.E.E.R.b.x.-.o.K O.:.v.R.~.(.]./.E.b.i. .k r * % + + + + ",
"+ + + + # * r a { i.D.E.^././.~.R.v.:.O.R { ,.9.x.v.v.T.T.v.v.v.b.b.b.D.D.S.j.a.:.O.K R #.:.v.R.~./.(.^.E.b.i. .k < , # + + +   ",
"+ + + + # , r k { d.b.E.^././.~.R.v.:.O.K K { #.-.c.p.a.a.a.a.z.z.:.a.a.a.:.:.-.,.{ K K O.:.v.R.~.(.(.^.E.b.i.X.k > > # @ + + + ",
"X + + # # * r k { i.v.E.^.(./.~.R.v.:.O.K K S { ,.{ ,.#.-.-.#.-.#.$.#.=.$.#.O.o.{ K K K O.:.v.R.E./.(.^.E.b.i. .k < , # @ + + X ",
"X X X + # > r k { i.I.E./.(./.^.R.v.:.O.K A S W K R { Q { H o.K Y Y Y Y R Y Y I S K A K O.:.v.R.~./.(./.E.b.i. .k r * @ + + + + ",
"X + # X % * r k } =.b.E./.(./.).R.v.a.O.K V V A A A A K A A A K K A A A K A A V B V V K O.:.v.R.).(.(.(.~.n.&. .a r * % $ + X o ",
"o o o X + * e p G &.b.E./.(.(.).R.v.p.o.K V V V m V V m V V V V V V V V V V m V V V V K O.:.D.R.).(.(.^.E.b.&.{ p > * $ o o $ o ",
"O O o $ $ & e p l &.n.E.^.(./.).R.v.:.o.K V m V V V V V V V V V V m V V V V V V V V V K +.:.v.R.~./.(.^.E.n.&.{ p e & $ $ o O O ",
"4 4 O O o = e p ` =.n.U.^.(.^.~.T.j.p.+.K V V m c V V m V m V m V V V V m V V m m V N K O.:.v.R.~.^.(.^.E.l.%.l w e & o o O 4 4 ",
"6 6 3 O o o = w l %.h.U.~.^.^.U.T.j.:.o.K N m m V m m m V V N m m m V V V N m b V V N K o.:.s.D.E.).^.!.U.g.%.l w - O o O 3 5 6 ",
"9 7 5 O O O e w z *.u.I.U.U.U.I.l.a.=.{ F N m m b b N N N M N N b N M N b M N N b M M B { =.d.l.I.U.!.U.I.f.*.z w 8 = O O 5 5 5 ",
"7 7 5 3 3 O 8 w g ` r.f.g.k.k.k.u.r.*.{ D p n n n n n n n n n n n n n n n n n n n n n D { *.r.u.g.n.Y.k.f.r.` z w = 3 O 3 6 7 7 ",
"7 5 5 3 6 4 4 q h _ ] | t.t.t.r.%.` ` l i y i y i i i i i i i i i i i i i i i y y i i j l ` { %.| t.| | } } _ h q 8 6 3 6 7 7 7 ",
";X;X;X6 6 6 7 s s / ( [ ' ' ' ' [ _ g g h w w w w h w w w w w w w w w w w w w w w w w h h _ _ [ ' ' ' [ [ ( / h s 6 6 6 5 ;X;X;X",
";X;X;X;X;X;X;X;X;Xd d / / / / / / d d s s 8 s s s 8 s s s s s s s s s s s s s s q s s s s h f / / / / / / d d ;X;X;X;X;X;X;X;X;X",
";X;X;X;X;X;X;X;X;X;X;X;X7 7 7 7 7 9 7 7 7 7 7 7 7 7 7 7 7 7 7 7 7 7 s 7 7 7 7 7 7 7 7 7 7 7 7 7 7 7 7 9 ;X;X;X;X;X;X;X;X;X;X;X;X",
";X;X;X;X;X;X;X;X;X;X;X;X;X;X;X;X;X;X;X;X;X;X;X;X;X;X;X;X;X;X;X;X;X;X;X;X;X;X;X;X;X;X;X;X;X;X;X;X;X;X;X;X;X;X;X;X;X;X;X;X;X;X;X;X",
";X;X;X;X;X;X;X;X;X;X;X;X;X;X;X;X;X;X;X;X;X;X;X;X;X;X;X;X;X;X;X;X;X;X;X;X;X;X;X;X;X;X;X;X;X;X;X;X;X;X;X;X;X;X;X;X;X;X;X;X;X;X;X;X",
";X;X;X;X;X;X;X;X;X;X;X;X;X;X7 7 ;X;X;X;X;X;X;X;X;X;X;X;X;X;X;X;X;X;X;X;X;X;X;X;X;X;X;X;X;X;X;X;X7 5 ;X;X;X;X;X;X;X;X;X;X;X;X;X;X",
";X;X;X;X;X;X;X;X;X;X;X;X;X7 7 7 7 7 7 7 7 7 7 5 7 7 7 7 7 7 7 7 7 7 7 7 7 7 7 7 7 7 7 7 7 7 7 7 7 7 7 ;X;X;X;X;X;X;X;X;X;X;X;X;X",
";X;X;X;X;X;X;X;X;X;X;X;X;X7 7 7 5 7 7 5 7 7 7 7 7 7 7 7 5 7 7 7 5 7 7 7 7 7 7 7 7 7 7 7 7 7 7 7 7 7 7 ;X;X;X;X;X;X;X;X;X;X;X;X;X"
};
