/* XPM */
static char *result[] = {
/* columns rows colors chars-per-pixel */
"64 64 135 2 ",
"   c #755338",
".  c #765438",
"X  c #755438",
"o  c #735237",
"O  c #6F4F35",
"+  c #674831",
"@  c #5E412C",
"#  c #583C28",
"$  c #5A3E29",
"%  c #60432D",
"&  c #684831",
"*  c #6D4C34",
"=  c #715036",
"-  c #745238",
";  c #765439",
":  c #583C29",
">  c #745338",
",  c #765338",
"<  c #745237",
"1  c #704F35",
"2  c #5A3E2A",
"3  c #61432D",
"4  c #684931",
"5  c #6D4D34",
"6  c #725036",
"7  c #775439",
"8  c #61432E",
"9  c #684932",
"0  c #6E4D34",
"q  c #725137",
"w  c #775539",
"e  c #755439",
"r  c #704E35",
"t  c #60432E",
"y  c #715136",
"u  c #725037",
"i  c #725136",
"p  c #735137",
"a  c #714F36",
"s  c #6C4C33",
"d  c #654630",
"f  c #5C3F2B",
"g  c #573B29",
"h  c #583D2A",
"j  c #5E422D",
"k  c #654730",
"l  c #6A4B33",
"z  c #6E4E35",
"x  c #6B4B33",
"c  c #6C4B33",
"v  c #6F4E35",
"b  c #593D2A",
"n  c #553A28",
"m  c #563B29",
"M  c #5B3F2B",
"N  c #644730",
"B  c #644630",
"V  c #664730",
"C  c #705036",
"Z  c #64462F",
"A  c #664831",
"S  c #61442E",
"D  c #533927",
"F  c #543A28",
"G  c #5C402C",
"H  c #5F422D",
"J  c #62442E",
"K  c #60422D",
"L  c #64452F",
"P  c #704F36",
"I  c #6B4C33",
"U  c #6C4C34",
"Y  c #694931",
"T  c #63452F",
"R  c #543927",
"E  c #573C29",
"W  c #5C402B",
"Q  c #5D3F2C",
"!  c #5E402C",
"~  c #60422E",
"^  c #6A4A32",
"/  c #755337",
"(  c #664830",
")  c #583D29",
"_  c #563B28",
"`  c #5D3F2B",
"'  c #5B3E2A",
"]  c #5B3F2A",
"[  c #5A3E2B",
"{  c #5B3E2B",
"}  c #5C3F2C",
"|  c #6E4E34",
" . c #694A32",
".. c #5D402B",
"X. c #6A4B32",
"o. c #593D29",
"O. c #593E2A",
"+. c #5D402C",
"@. c #5E412D",
"#. c #664731",
"$. c #5F412C",
"%. c #65462F",
"&. c #755238",
"*. c #715035",
"=. c #6B4B32",
"-. c #6D4D33",
";. c #735238",
":. c #694932",
">. c #735136",
",. c #553A27",
"<. c #62432E",
"1. c #5A3D29",
"2. c #563A28",
"3. c #573C28",
"4. c #5F422C",
"5. c #5F412D",
"6. c #573B28",
"7. c #533827",
"8. c #5A3D2A",
"9. c #5E412B",
"0. c #674830",
"q. c #745337",
"w. c #755237",
"e. c #775438",
"r. c #6A4A33",
"t. c #63442F",
"y. c #5D412C",
"u. c #533826",
"i. c #674931",
"p. c #63452E",
"a. c #705035",
"s. c #6C4D34",
"d. c #6D4C33",
"f. c #684832",
"g. c white",
/* pixels */
"                                                                                  . . X   o O + @ # $ % & * = - ; ;             ",
"                                                                                  . . .   o O + @ : $ % & * = > ; ;             ",
". . . . . . . . . . . . . . ,             . . . . . .                             . . .   < 1 + @ : 2 3 4 5 6   7 7 ; . . . . . ",
"; ; ; ; ; ; ; ; ; ; ; ; ; ; . .       . . . ; ; ; ; . . .                         . ; . , < 1 & @ : 2 8 9 0 q X w w w ; ; ; ; ; ",
"; ; ; ; ; ; ; ; ; ; ; ; . . .           . . . ; ; . . .                           . ; e   < r + @ : 2 t 9 5 y   ; w ; ; ; ; ; ; ",
"u u u u u u u u u u u q i i i p < - - < o p i u u i p o < >                           - p a s d f g h j k l z = p p q u u u u u ",
"x x x x x x x x x x x x c s 5 v = p q = v 5 s x x s 5 v = o                         < i v c + % b n m M t N 4 x s s x x x x x x ",
"B B B B B B B B B B B d d V & x v = C 0 l 4 V Z Z V 4 x z i                 . .   < i O x A S f m D F h G H J Z k d d B B B B B ",
"K K K K K K K K K H H K K 8 L 4 5 P O I + Z 8 K K 8 Z & U = > ,             . .   < = 0 Y T @ b n D R E 2 W @ K % % K K K K K K ",
"f f f f f f f f f f f f Q ! ~ V U O z ^ d 8 @ f f @ 8 k x P - ,             . . / o 1 s ( % M ) _ n n E b 2 M f ` ` f f f f f f ",
"' ' ' ' ' ' ] ' ' 2 2 [ { } H d x O |  .Z K ..2 2 W K Z X.1 - ,             . . / p 1 I V H M o.: : : o.O.2 2 ' ' ' ' ' ] ' ' ' ",
"+.+.+.+.+.+.+.+.+.+.G +.+.@.8 #.U 1 v X.V J $.....$.J V x = - ,             . . / p 1 U + J @ W W +.+.+.+.+.+.+.+.+.+.+.+.+.+.+.",
"%.%.%.%.%.%.%.%.Z Z Z B B k + x v = = 0 X.4 k Z Z k 4 x | i                 , .   o = v I 4 k Z B k k k d d %.%.Z Z %.%.%.%.%.%.",
"0 0 0 0 0 0 0 0 5 5 5 5 5 0 v P q o p 6 1 v 0 5 5 0 v P i <                       > o q = v 0 5 5 5 5 5 0 0 0 0 0 0 0 0 0 0 0 0 ",
"< < < < < < < < < o o o o < - -         - - o o o o - -                                 > - < < o o o < < < < < < < < < < < < < ",
". . . . . . . . . . X X X . . ,         , . X X X X . ,                                 , . . . X X X . . . . . . . . . . . . . ",
", , , , , , , , , X X X X , ,                 X X                                         , , . X       , . . . . . . , , , , , ",
"                                                                                                                                ",
"                                          , ,                                                                                   ",
"                                      . . . . , ,                                                                               ",
"                                        . . , , ,                                                                               ",
"                                      < < o < < < &.  , ,                                                                       ",
"; ; ; ; ; ; ; ; ; ; ; ; ; ; ; ; ; ; - i 1 O 1 *.6 <   ; 7 ; ; ;         . . ; ; ; ; . . ,                                 ; ; ; ",
"; ; ; ; ; ; ; ; ; ; ; ; ; ; ; ; ; e p v s =.I -.v 6 &.; 7 ; ; ;       , . . ; ; ; ; . . .                                 ; ; ; ",
"> > > > > > > > > > > > > > >     ;.P x + k ( 4 x v p       >           /   > - - >   /                                 > > > > ",
"= = = = = = = = = = = = = = = = = P U V 8 H % T ( x v = q u u p < < < o p i = = = = i p o >                       &.< < p 6 = = ",
"* * * * * * * * * * * * * * * 5 5 I + t M 2 M @ S V X.5 0 0 z 1 i < p 6 1 z 5 * * 5 z 1 i o                       < p 6 1 | 5 * ",
"& & & & & + + + & & & & & & & 4 4 ( J W E _ E O.+.S k 4 4 :.^ * 1 >.6 O U l 9 + + 9 l U O q                       < 6 1 * ^ 4 + ",
"% % K K K K K K K K % % % % % % % H W : n R ,._ o.M @ % 3 J L 4 0 = 1 s 4 d J K K <.Z 4 U = > ,                 > p a 5 Y L 8 K ",
"$ 1.o.o.: : : : ) b b 2 2 2 $ $ 2 o.: 2.R D R ,._ 3.) b 2 ] @ Z x 1 z  .Z K f b o.M 4.T ^ 1 - .             ; ; > q v x B 5.{ b ",
": # 6.,.R 7.D R ,._ E : : : : : : : 3.6._ _ 6.3.3.6.6.E : 8...T x O 0 :.T @ 2 : 3.8.+.J :.O - .             ; ; > q z ^ T +.b g ",
"9...2 g R 7.R n 6.b f @ @ @ @ @ @ @ @ @ @ @ @ @ @ +.+.+.+.4.S 0.5 P O x ( T H +...$.J V x = - ,             ; ;   p 1 s + J @.+.",
"0.V J f E 2.g b f % d + 4 + + + + + + + + + + + + + #.#.+ +  .s 1 q y O s ^ 4 #.#.&  .s O q                       < 6 1 * ^ + A ",
"v 5 Y J f 2 M @ J + s r 1 1 O O O O O O O O O O v v z z v v 1 = o ;.o i = 1 O v v v 1 = >.<                       - < p 6 1 O v ",
"p 6 5 + 8 H t T A c a < < < o o o o o o o o o o o p p p p p p < > > > < o o p p p p o < <                             < < < o o ",
"  < 1 x + k A :.x v p   ,                             >   &.&.        > > q.> >                                                 ",
", w.>.v U I s 0 O i - e ; . . X X X X X X . . X X X X                             , , ,                                     X . ",
", , < i 1 1 1 = i <   ; ; . . . . . . . . . . . . . . . . , , ,             X . . . , , ,                                 . . . ",
",     < p p o < <     . . . . . . . . . . . . . . . . . , , ,                 . . , ,                                       . . ",
"        / / /                                                                                                                   ",
"      . . . . . . .                                                                                                             ",
". . . . . . e.. . . , ,                             , . . . . . . . . . . . . . . . . . . . . . . . . . . . . . . . . . . . . . ",
". . . . . . . . . . , ,                             . . . . . . . . . . . . . . . . . . . . . . . . . . . . . . . . . . . . . . ",
"X X . . . X X X   , , ,                                 X X X . X X X X X X X X X X X X X X X X X X X X X X X X X X X X X X X X ",
"              >                                     > >                                                                         ",
"o o o o o o p p p p o < <                   - - < p p p p o o o o o o o o o o o o o o o o o o o o o o o o o o o o o o o o o o o ",
"O O O O O v v z v O 1 = >.<               > < p = P v z z v O O O O O O O O O O O O O O O O O O O O O O O O O O O O O O O O O O ",
"+ + + + + + #.#.+ 4 ^ s O q               < 6 v * r.& #.#.+ + + + + + + + + + + + + + + + + + + + + + + + + + + + + + + + + + + ",
"@ @ @ @ @ +...+.@ H J V x = - ,       .   o 1 x + t.H +.W ..y.@ @ @ @ @ @ @ @ @ @ @ @ @ @ @ @ @ @ @ @ @ @ @ @ @ y.y.@ @ @ @ @ @ ",
": : : : : # 6.g : 2 @ J :.O - .     , . . p | :.L 5.2 E 6.3.: : : : : : : : : : : : : : : # # 3.6._ _ 6.3.# # : : : : : : : : : ",
"$ $ $ $ $ o.o.o.2 f H T ^ 1 - ,       .   p v ^ d K f b o.o.$ $ $ $ $ $ $ $ $ $ $ $ $ 1.o.o.: _ R u.7.,.6.: o.8.2 2 2 $ $ $ $ $ ",
"% % % % % K K H % J B 4 U = >         .   o 1 U :.k J K H K % % % % % % % % % % % % % K K 4...b ,.u.7._ 2 W @ K 3 3 3 % % % % % ",
"& & & & & + + + i. .l U O q               < i O 5 l 9 + + + & & & & & & & & & & & & & + 0.V p.@ : R n 8.@.J d + :.Y 4 & & & & & ",
"* * * * * * U U 5 5 z 1 i o               - o y a.z 5 s.U * * * * * * * * * * * * 5 * d.s =.4 J f : b ! t.+ r.* 0 0 5 * * * * * ",
"= = = = = = = = = = i p o >                 q.o o i = = = = = = = = = = = = = = = 6 6 = a r d.+ 8 +.5.T f.x v = q q = = = = = = ",
"> > > > > > > > > >   /                             > > - > > > > > > > > > > > >     &.< p *.s + Z d 9 U P q >       > - > > > ",
"; ; ; ; ; ; ; ; ; . . . .                     . . . ; ; ; ; ; ; ; ; ; ; ; ; ; ; ; ; 7 ; ,   o 1 s  .X.5 P q > . w w ; ; ; ; ; ; ",
"; ; ; ; ; ; ; ; ; . . . ,                     . . . ; ; ; ; ; ; ; ; ; ; ; ; ; ; ; ; ; ; . , q.i 1 | v C q -   ; ; ; ; ; ; ; ; ; ",
"                                                                                    , ,       < o o o o - >     . ,             ",
"                                                                                                  .                             ",
"                                                                                                . . . .                         ",
"                                                                                                                                ",
"                                                                                                                                ",
"                                                                                                                                "
};
