/* XPM */
static char *result[] = {
/* columns rows colors chars-per-pixel */
"64 64 204 2 ",
"   c #1A1D34",
".  c #1D1F39",
"X  c #1B2335",
"o  c #1B2B35",
"O  c #1E2338",
"+  c #1F2C39",
"@  c #162031",
"#  c #1D3336",
"$  c #1F3539",
"%  c #1F3B38",
"&  c #21263B",
"*  c #232A3C",
"=  c #23343C",
"-  c #243C3C",
";  c #24433D",
":  c #264B3E",
">  c #26523E",
",  c #285A3F",
"<  c #28573F",
"1  c #232741",
"2  c #262D41",
"3  c #292F43",
"4  c #292E48",
"5  c #273343",
"6  c #2A3145",
"7  c #263A41",
"8  c #293B44",
"9  c #2D354B",
"0  c #2E394D",
"q  c #30374D",
"w  c #313A4E",
"e  c #2F3550",
"r  c #343C53",
"t  c #383F53",
"y  c #373E59",
"u  c #2A4444",
"i  c #274840",
"p  c #2A4C44",
"a  c #2F454B",
"s  c #2E4D49",
"d  c #31444D",
"f  c #324A4E",
"g  c #2A5441",
"h  c #2C5C43",
"j  c #2E5B48",
"k  c #33534E",
"l  c #335C4B",
"z  c #354355",
"x  c #3B4256",
"c  c #354B53",
"v  c #384B56",
"b  c #374258",
"n  c #3A435C",
"m  c #3B4B5C",
"M  c #374B58",
"N  c #355452",
"B  c #395A54",
"V  c #3B535B",
"C  c #3D5B5C",
"Z  c #375754",
"A  c #2B6242",
"S  c #2E6945",
"D  c #306647",
"F  c #34644E",
"G  c #356C4C",
"H  c #316C47",
"J  c #37724E",
"K  c #39744F",
"L  c #396356",
"P  c #376F50",
"I  c #3E6359",
"U  c #3F6D5A",
"Y  c #386654",
"T  c #3D7256",
"R  c #3D7B55",
"E  c #3E7B58",
"W  c #3D4661",
"Q  c #3F4962",
"!  c #3E5261",
"~  c #434A5E",
"^  c #426D5F",
"/  c #40655C",
"(  c #417C57",
")  c #447E5D",
"_  c #41725D",
"`  c #424C65",
"'  c #444E69",
"]  c #425464",
"[  c #4A5266",
"{  c #435C64",
"}  c #46516C",
"|  c #4A546D",
" . c #465C69",
".. c #4B5B6E",
"X. c #51596E",
"o. c #4A5572",
"O. c #4D5A74",
"+. c #4F5A78",
"@. c #525C75",
"#. c #525E7B",
"$. c #446364",
"%. c #456B63",
"&. c #476568",
"*. c #4A646D",
"=. c #4A6C6B",
"-. c #467362",
";. c #497566",
":. c #467B61",
">. c #4A7469",
",. c #4D7D6B",
"<. c #4B7E67",
"1. c #4E6473",
"2. c #4E6E71",
"3. c #516377",
"4. c #516C76",
"5. c #54627C",
"6. c #5A647C",
"7. c #54697B",
"8. c #5C657A",
"9. c #4F7071",
"0. c #527474",
"q. c #527C74",
"w. c #56727C",
"e. c #567B7A",
"r. c #597C7E",
"t. c #58747F",
"y. c #616A7E",
"u. c #43865B",
"i. c #418357",
"p. c #468361",
"a. c #498464",
"s. c #498D61",
"d. c #4D846A",
"f. c #4F8A6B",
"g. c #51826E",
"h. c #548F6E",
"j. c #4F9369",
"k. c #4E9466",
"l. c #53946C",
"z. c #55986F",
"x. c #538473",
"c. c #548B72",
"v. c #57827A",
"b. c #5A8C78",
"n. c #589574",
"m. c #5C917B",
"M. c #569572",
"N. c #555F81",
"B. c #566382",
"V. c #5A6684",
"C. c #5C6A84",
"Z. c #5B6789",
"A. c #5E6B8B",
"S. c #5B7483",
"D. c #5D7B85",
"F. c #5F7489",
"G. c #626D85",
"H. c #616D8B",
"J. c #667186",
"K. c #64728C",
"L. c #6A748C",
"P. c #637B8D",
"I. c #6D7A8F",
"U. c #657783",
"Y. c #616E91",
"T. c #657293",
"R. c #6A7694",
"E. c #6D7994",
"W. c #697698",
"Q. c #6D7B9B",
"!. c #677797",
"~. c #737E95",
"^. c #717E9C",
"/. c #628B83",
"(. c #65848B",
"). c #699286",
"_. c #6C8293",
"`. c #6E809A",
"'. c #728294",
"]. c #788297",
"[. c #748E95",
"{. c #74819D",
"}. c #7A859D",
"|. c #7C899F",
" X c #6F9190",
".X c #7C969B",
"XX c #779595",
"oX c #7683A1",
"OX c #7986A2",
"+X c #7D8AA5",
"@X c #7F8BA8",
"#X c #7E92A1",
"$X c #808A9F",
"%X c #818DA6",
"&X c #828EA9",
"*X c #8591A5",
"=X c #8699A5",
"-X c #8692AB",
";X c #8A95AD",
":X c #8D99AF",
">X c #8F9AB0",
",X c #8A95B1",
"<X c #909BB1",
"1X c None",
/* pixels */
"1X1X1X1X1X1X1X1X1X1X1X1X1X1X1X1X1X1X1X1X1X1X1X1X1X1X1X1X1X1X1X1X1X1X1X1X1X1X1X1X1X1X1X1X1X1X1X1X1X1X1X1X1X1X1X1X1X1X1X1X1X1X1X1X",
"1X1X1X1X1X1X1X1X1X1X1X1X1X1X1X1X1X1X1X1X1X1X1X1X1X1X1X1X1X1X1X1X1X1X1X1X1X1X1X1X1X1X1X1X1X1X1X1X1X1X1X1X1X1X1X1X1X1X1X1X1X1X1X1X",
"1X1X1X1X1X1X1X1X1X1X1X1X1X1X1X1X1X1X1X1X1X1X1X1X1X1X1X1X1X1X1X1X1X1X1X1X1X1X1X1X1X1X1X1X1X1X1X1X1X1X1X1X1X1X1X1X1X1X1X1X1X1X1X1X",
"1X1X1X1X1X1X1X1X1X1X1X1X1X1X1X1X1X1X1X1X1X1X1X1X1X1X1X1X1X1X1X1X1X1X1X1X1X1X1X1X1X1X1X1X1X1X1X1X1X1X1X1X1X1X1X1X1X1X1X1X1X1X1X1X",
"1X1X1X1X1X1X1X1X1X1X1X1X1X1X1X1X1X1X1X1X1X1X1X1X1X1X& & & * & & & & & & * & 1X1X1X1X1X1X1X1X1X1X1X1X1X1X1X1X1X1X1X1X1X1X1X1X1X1X",
"1X1X1X1X1X1X1X1X1X1X1X1X1X1X1X1X1X1X1X1X1X1X1X1X1X6 6 3 6 6 6 3 6 6 3 3 3 2 2 1X1X1X1X1X1X1X1X1X1X1X1X1X1X1X1X1X1X1X1X1X1X1X1X1X",
"1X1X1X1X1X1X1X1X1X1X1X1X1X1X1X1X1X1X1X1X1X1X1Xq w w r r t r r r t r w 0 9 6 6 6 2 1X1X1X1X1X1X1X1X1X1X1X1X1X1X1X1X1X1X1X1X1X1X1X",
"1X1X1X1X1X1X1X1X1X1X1X1X1X1X1X1X1X1X1X1X1X1X9 w y n Q Q Q Q Q Q Q Q n n y r 0 6 6 * 1X1X1X1X1X1X1X1X1X1X1X1X1X1X1X1X1X1X1X1X1X1X",
"1X1X1X1X1X1X1X1X1X1X1X1X1X1X1X1X1X1X1X1X1X6 r n Q ' | o.o.O.o.O.o.o.} ` Q n y w 9 3 2 * * * 1X1X1X1X1X1X1X1X1X1X1X1X1X1X1X1X1X1X",
"1X1X1X1X1X1X1X1X1X1X1X1X1X1X1X1X1X1X1X1X3 w n ` | +.B.Z.Z.V.V.Z.V.B.5.O.} ` n y r 0 9 3 3 2 3 2 1X1X1X1X1X1X1X1X1X1X1X1X1X1X1X1X",
"1X1X1X1X1X1X1X1X1X1X1X1X1X1X1X1X1X1X1X9 q y ` } #.C.T.!.E.E.!.!.R.R.H.Z.#.o.' W n y w 0 9 3 6 2 1X1X1X1X1X1X1X1X1X1X1X1X1X1X1X1X",
"1X1X1X1X1X1X1X1X1X1X1X1X1X1X1X1X1X1X1Xq y Q [ #.C.R.^.OXOXOXOXOXOXoX^.T.A.B.+.o.` n n y r 0 0 9 6 1X1X1X1X1X1X1X1X1X1X1X1X1X1X1X",
"1X1X1X1X1X1X1X1X1X1X1X1X1X1X1X1X1X3 q y Q o.#.G.E.^.+X&X-X@X@X@X@X@XOX^.R.A.V.#.@.o.} ` Q y r e 9 3 1X1X1X1X1X1X1X1X1X1X1X1X1X1X",
"1X1X1X1X1X1X1X1X1X1X1X1X1X1X1X1X1X3 q ~ } #.G.E.{.%X-X;X;X;X>X;X;X-X%XOX^.R.Y.Y.Z.V.N.+.} ` n r 0 6 3 1X1X1X1X1X1X1X1X1X1X1X1X1X",
"1X1X1X1X1X1X1X1X1X1X1X1X1X1X1X1X* * w ` #.C.E.OX&X-X;X<X:X<X:X:X>X;X-X%X}.^.^.Q.T.Y.Y.V.N.o.' W t 9 9 3 1X1X1X1X1X1X1X1X1X1X1X1X",
"1X1X1X1X1X1X1X1X1X1X1X1X1X1X1X1X& * r ' #.L.{.&X;X>X<X<X<X<X<X<X>X>X;X-X%XOXoX^.Q.W.Y.Y.V.#.o.' n r q 9 6 1X1X1X1X1X1X1X1X1X1X1X",
"1X1X1X1X1X1X1X1X1X1X1X1X1X1X1X1X& * t [ y.I.}.-X>X>X>X>X<X<X<X<X<X>X:X;X-X&X@XOX^.Q.W.Y.H.Z.N.+.' W y 0 4 3 * 1X1X1X1X1X1X1X1X1X",
"1X1X1X1X1X1X1X1X1X1X1X1X1X1X1X1X* 9 t X.G.~.%X-X>X>X>X>X>X>X>X>X:X<X>X:X,X-X&XOXoXQ.W.T.Y.Y.N.#.} ` y r q 3 3 1X1X1X1X1X1X1X1X1X",
"1X1X1X1X1X1X1X1X1X1X1X1X1X1X1X9 t x [ 8.L.~.$X%X;X,X,X,X>X:X>X>X<X>X<X<X>X;X-X+XoXQ.W.Y.Y.Z.N.N.o.` n r 9 3 * * 1X1X1X1X1X1X1X1X",
"1X1X1X1X1X1X1X1X1X1X1X1X1X1X1X~ [ X.@.J.E.~.^.+X@X@X@X-X;X>X>X>X>X>X<X<X<X;X-X@XOXQ.T.Y.Z.N.#.o.} Q y r q 3 * & 1X1X1X1X1X1X1X1X",
"1X1X1X1X1X1X1X1X1X1X1X1X1X3 w ~ X.G.J.E.~.~.^.OXoXOXOX@X-X;X>X>X>X>X>X<X<X,X,X@XOXQ.W.A.Z.#.+.o.} Q n r q 3 * * 1X1X1X1X1X1X1X1X",
"1X1X1X1X1X1X1X1X1X1X1X1X1X9 t [ y.I.~.^.^.OX^.^.^.^.oXOX+X-X;X>X>X>X<X<X<X>X-X&XOXQ.W.A.N.#.+.X.o.o.` n r q 9 3 1X1X1X1X1X1X1X1X",
"1X1X1X1X1X1X1X1X1X1X1X1X3 q x X.J.~.%X%X@XOXOX^.Q.Q.Q.oXOX*X-X-X:X>X>X<X<X>X,X&XOXQ.W.Y.H.N.#.8.#.#.O.[ ` n y w q 1X1X1X1X1X1X1X",
"1X1X1X1X1X1X1X1X1X1X1X* 9 r ~ @.L.%X&X-X&X@XOX^.Q.Q.Q.Q.oXOX+X-X-X>X<X<X<X,X-X@XOXQ.W.Y.L.G.G.G.G.G.V.@.| } ` n y q 1X1X1X1X1X1X",
"1X1X1X1X1X1X1X1X1X1X3 9 r y ` #.I.$X;X;X-X&XOX^.^.Q.W.Q.Q.OXOX@X-X:X<X<X<X,X-X%X^.^.^.R.R.L.L.~.I.~.J.G.6.+.[ Q x w 1X1X1X1X1X1X",
"1X1X1X1X1X1X1X1X1Xq q t y ` [ 6.I.$X*X-X-X&X+XoXoXQ.Q.Q.Q.{.OX@X%X:X:X<X;X;X%X+X^.^.Q.Q.~.^.}.$X}.{.~.R.H.V.o.` n r 6 1X1X1X1X1X",
"1X1X1X1X1X1X1X1Xt x n ~ ` } @.V.L.~.$X%X%X%X%XOXOX^.^.Q.Q.oXOX+X-X:X:X:X;X-X+X{.^.R.R.Q.^.%X-X-X-X%X+X^.R.A.#.' y r 3 & 1X1X1X1X",
"1X1X1X1X1X1X1X~ ~ ` [ | X.@.#.V.L.E.~.~.+X+X+X+X@XOXoXoX{.OXOX+X-X:X-X;X-X%X{.^.R.T.R.R.%X&X:X:X;X&X+X^.R.A.+.' n q 3 & 1X1X1X1X",
"1X1X1X1X1X1Xx ~ | 8.8.G.V.V.V.C.G.G.H.E.~.^.OXOX@X@X+X+X+X+X+X-X;X;X,X&X&XOX~.Y.H.G.H.L.~.%X;X;X-X+X^.Q.K.B.o.Q y q 3 & 1X1X1X1X",
"1X1X1X1X6 w ~ X.8.G.~.~.E.L.H.Z.N.N.V.G.H.Q.^.OX@X@X-X-X;X-X;X;X;X;X-X%XOX^.K.Z.V.#.V.G.E.%X*X&X+X~.R.H.B.O.' n w 9 3 * 1X1X1X1X",
"1X1X1X1Xw x [ 8.J.~.$X%X+X^.R.A.N.#.#.N.H.T.^.oX@X-X,X>X>X:X:X;X;X-X%XOX^.T.Z.#.+.+.#.#.J.~.{.}.Q.R.H.N.O.} n y q 6 * * 1X1X1X1X",
"1X1X1Xx ~ X.y.J.I.$X*X;X&X+X^.T.G.N.N.V.A.Y.Q.oX@X-X,X>X<X<X:X;X-X&XOX^.T.G.#.@.o.o.X.O.G.J.E.T.G.V.N.#.o.' n y q 6 3 * 1X1X1X1X",
"* = t ~ X.y.L.].+X*X;X>X,X@X@X`.T.Y.Z.Z.Y.W.^.^.%X&X:X<X<X>X:X;X%XOXQ.T.Z.#.+.o.o.} } +.N.N.V.V.#.#.o.o.} ` W r r 3 3 & 1X1X1X1X",
"* * t [ y.L.$X%X=X:X:X,X,X-X@XoXQ.W.Y.W.W.Q.^.^.%X;X:X<X<X>X;X&XOX{.R.H.B.@.o.' Q } Q } ' } o.o.o.} } o.' W n r q 4 3 * 1X1X1X1X",
"* 3 t [ y.].$X:X<X<X>X:X-X-X@XoXQ.Q.W.W.W.Q.^.%X%X;X:X<X>X>X;X&X@XoXR.H.B.#.o.} Q Q Q } ' ' ' } } o.o.' ` n y q 9 3 2 * 1X1X1X1X",
"* * ~ X.y.].*X>X<X<X>X;X-X@X@XOXQ.Q.Q.^.^.^.OX%X&X;X:X<X>X>X:X&X&XOX^.R.A.B.+.o.o.o.Q Q Q ` ' o.o.+.o.' ` n t q 3 3 * * 1X1X1X1X",
"* 3 x X.J.].*X<X<X<X<X,X@XOXoXQ.Q.W.Q.^.OX%X&X-X:X:X:X>X<X>X:X;X-X%X}.^.R.A.V.O.o.Q Q Q Q Q Q o.#.N.+.} Q b w 6 4 * * * 1X1X1X1X",
"* 3 t X.G.].%X>X<X<X,X-X@XoXQ.W.W.W.Q.^.^.%X-X,X:X>X:X<X>X>X>X:X;X-X%XOXQ.T.A.5.+.} } Q } Q o.+.B.B.N.} Q r q 4 * 2 * * 1X1X1X1X",
"& 3 t [ G.~.@X,X,X-X@X@XoX^.W.!.Y.Y.W.Q.%X%X;X>X<X<X>X<X>X>X>X>X,X;X-X&XOXQ.K.V.N.o.Q o.o.o.+.N.A.A.B.o.n e 9 * * * * * 1X1X1X1X",
"* 3 t [ C.R.oX@X@X@X@XoX^.W.!.Y.Y.Z.Y.Q.}.%X;X>X<X<X<X:X>X>X>X>X>X>X;X-X%X}.E.H.N.o.N.Q Q N.N.Z.Y.Y.Z.o.Q r 4 * & & * * 1X1X1X1X",
"* * t [ #.G.^.}.OXOXoX`.Q.!.T.Z.N.N.H.E.}.%X;X:X<X<X<X<X<X>X>X<X<X<X>X;X&X%X^.H.V.@.o.} O.N.V.A.T.T.V.o.~ w 9 * & * * * 1X1X1X1X",
"* 3 e ~ X.Z.H.Q.`.`.`.Q.!.T.F.Z.N.N.6.I.].+X;X:X<X<X<X<X<X<X>X<X<X<X<X<X,X%X~.L.G.O.o.o.1.B.A.F.A.A.B.| x w 6 * * * * * 1X1X1X1X",
"& * q x [ #.G.G.F.P.P.P.P.F.Z.B.5.3.7.U._.|.*X;X>X>X<X<X<X<X<X<X>X>X>X>X;X%X~.L.C.5.X.o.3.C.F.F.A.Z.@.] v w 8 = * * * * 1X1X1X1X",
"& * 9 t W } @.5.S.S.D.F.S.Z.B.1.*.*.0.t._.].+X*X:X:X>X>X>X>X>X>X>X>X>X>X,X%X~.H.6.3.O.O.2.t.D.S.7.1. .~ c a w = = * = * 1X1X1X1X",
". & 2 q y m ] *.2.0.e.e.w.7.1.1.=.>.q.r.(._.|.%X,X;X;X:X:X:X:X:X>X:X;X-X%XOXE.H.B.3...*.2.q.e.0.*.] V v f p ; - = = * * 1X1X1X1X",
"  . & 2 4 w c $.%.>.,.q.=.1.*.*.>.,.d.e.D._.'.OX&X&X;X:X:X:X:X:X;X;X-X%X+X^.T.Z.5.@. .&.>.,.<.-.C v f f p p p ; - - * * 1X1X1X1X",
"1X1X  . & 5 a B I _ ;.>.=.$.{ $.-.p.d.x.r.D.E.`.OX%X*X=X=X=X=X*X*X%X|.OX^.Q.H.V.#.O.$.$.-.:.) T l a u : : p : ; u = = & 1X1X1X1X",
"1X1X1X  & = 8 k C I %.=.$.{ ! $._ ) :.>.2.S.F.R.^.}.|..X=X.XXX[.'.'.'.~.E.T.A.N.#.O.{ $.U E R G j u : : : p ; ; - = * & 1X1X1X1X",
"1X1X1X1X1X* 8 f v { { &.{ ] ! ! Y T T ^ &.1.B.A.T.W.`.[. X).)./.U.S.A.Y.Y.Y.A.N.5...{ C Y T J S h , > : ; ; - - = * * 1X1X1X1X1X",
"1X1X1X1X1X1X9 d v m ] ] ` ! ! L Y F F L { ! 1.B.A.P.(.(./.m.n.x.0.7.5.V.A.A.Z.N.+.o.! V l D S S A , < : ; - = * * & 1X1X1X1X1X1X",
"1X1X1X1X1X1X1Xr x n Q Q Q Q m N j j j Z ! ! 1.3.V.D.(./.m.n.c.d.>.3.N.B.Z.N.N.N.+.} ! N N j h A A A , : ; = = * &   1X1X1X1X1X1X",
"1X1X1X1X1X1X1X1X1Xn Q W n b z a s g s f N ! o.1.0.D.b.m.n.M.l.x.0.7.B.N.N.N.N.N.+.! ! M c p g < , , h > ; - * X     1X1X1X1X1X1X",
"1X1X1X1X1X1X1X1X1X1X1X1Xr 0 0 7 7 u u a n V { *.9.x.c.n.z.z.l.x.w.7.V.V.N.+.o.o.} } Q b d u i p , , , > ; # * X   1X1X1X1X1X1X1X",
"1X1X1X1X1X1X1X1X1X1X1X1X1X4 2 5 $ = 5 0 z m ] &.=.d.f.j.k.k.j.f.e.S.C.7.N.O.o.! Q Q W b r 8 - : < , < : ; # o X   1X1X1X1X1X1X1X",
"1X1X1X1X1X1X1X1X1X1X1X1X1X1X1X1XX o = 6 r b m $.%.:.p.s.s.s.s.f.q./.w.7.1.O.} } Q W W b 0 8 = - : > > : % # o   1X1X1X1X1X1X1X1X",
"1X1X1X1X1X1X1X1X1X1X1X1X1X1X1X1X1X1X1 4 9 r c V L U E ( i.u.u.f.x.v.e.4.1.o.} } Q W W b r 6 = - ; : : - # # @ 1X1X1X1X1X1X1X1X1X",
"1X1X1X1X1X1X1X1X1X1X1X1X1X1X1X1X1X1XO 1 4 0 a c N F G K K R E p.d.c.q.9.*.o.! Q Q W n y e 4 * + % ; % % + o 1X1X1X1X1X1X1X1X1X1X",
"1X1X1X1X1X1X1X1X1X1X1X1X1X1X1X1X1X1X1X1X1 2 6 8 u s g h S G K E p.d.d.=.&.! } Q W n y y e 4 O o + # # + o 1X1X1X1X1X1X1X1X1X1X1X",
"1X1X1X1X1X1X1X1X1X1X1X1X1X1X1X1X1X1X1X1X1X1X1X1X& = % : > h S J E ) :.%.$.! Q Q W y y r 4 1 X   @ X X 1X1X1X1X1X1X1X1X1X1X1X1X1X",
"1X1X1X1X1X1X1X1X1X1X1X1X1X1X1X1X1X1X1X1X1X1X1X1X1X1Xo # % > g S J T T I V m m b y y r e 4 1   1X1X1X1X1X1X1X1X1X1X1X1X1X1X1X1X1X",
"1X1X1X1X1X1X1X1X1X1X1X1X1X1X1X1X1X1X1X1X1X1X1X1X1X1X@ o # % : > h F l N f d r e e e 9 9 2 O 1X1X1X1X1X1X1X1X1X1X1X1X1X1X1X1X1X1X",
"1X1X1X1X1X1X1X1X1X1X1X1X1X1X1X1X1X1X1X1X1X1X1X1X1X1X1X@ o + # - - - u 7 5 5 2 2 1 2 1 O O   1X1X1X1X1X1X1X1X1X1X1X1X1X1X1X1X1X1X",
"1X1X1X1X1X1X1X1X1X1X1X1X1X1X1X1X1X1X1X1X1X1X1X1X1X1X1X  @ @ X X X X O O O O X X .   X       @ @   1X1X1X1X1X1X1X1X1X1X1X1X1X1X1X",
"1X1X1X1X1X1X1X1X1X1X1X1X1X1X1X1X1X1X1X1X1X1X1X1X1X1X1X      1X1X1X1X1X1X1X1X1X1X1X1X1X1X1X        1X1X1X1X1X1X1X1X1X1X1X1X1X1X1X"
};
