/* XPM */
static char *result[] = {
/* columns rows colors chars-per-pixel */
"16 16 8 1 ",
"  c #181C32",
". c #242A3D",
"X c #296640",
"o c #414B66",
"O c #509B66",
"+ c #677598",
"@ c #8F9AB0",
"# c None",
/* pixels */
"################",
"######....######",
"#####.+++o..####",
"####.+@@@++o.###",
"####.@@@@@++o.##",
"###.@++@@@+oo.##",
"##.o@@++@@+@@+.#",
"#.@+o+@@@+o@+o.#",
".@@@++@@+ooooo.#",
".@@++@@@@+oo+..#",
".+++o@@@@@o++..#",
" .OoO+@@@+oO.X.#",
"# ooXo+Oo+oXX. #",
"###  oOO+oo.X  #",
"####   XOoo   ##",
"######       ###"
};
