/* XPM */
static char *result[] = {
/* columns rows colors chars-per-pixel */
"64 64 56 1 ",
"  c #030101",
". c #0B0604",
"X c #0D0906",
"o c #110A07",
"O c #140C09",
"+ c #1C0E0A",
"@ c #1F100D",
"# c #24130E",
"$ c #251611",
"% c #241911",
"& c #2C1B13",
"* c #271A1A",
"= c #2B1E1C",
"- c #311E15",
"; c #2F2116",
": c #312117",
"> c #352419",
", c #39261A",
"< c #3D291D",
"1 c #352520",
"2 c #30272B",
"3 c #33292C",
"4 c #3A2D2C",
"5 c #422C1F",
"6 c #442E20",
"7 c #473121",
"8 c #4C3424",
"9 c #45332D",
"0 c #513725",
"q c #533927",
"w c #553A28",
"e c #583E2B",
"r c #463837",
"t c #4C3932",
"y c #40383D",
"u c #5D412C",
"i c #63452F",
"p c #654630",
"a c #674932",
"s c #6C4C34",
"d c #714F35",
"f c #725137",
"g c #765439",
"h c #79563A",
"j c #3C3741",
"k c #484046",
"l c #494754",
"z c #4B4C5D",
"x c #4B4E62",
"c c #52556A",
"v c #585F79",
"b c #5B6480",
"n c #616C8C",
"m c #657294",
"M c #6A799E",
"N c None",
/* pixels */
"Mmbxj3*#++++#+#++#+#+#+@@@@@##+#++##+#++#++#+#+@@@@@++++##2jxbmM",
"mnvzj3*$@@###############################################-2jzvnm",
"bvcly41---&--------:-----------------------:-------------19ylcvb",
"xzlkr996555555555555555555555555655555555555555555565555589rklzx",
"jj4kttwwwwwwwwwwuqqwquuuwwqqwqqqwwwqwwwwuqqwquuuwwqqqwwwwtttryjj",
"2349teeppiipppppiiiiuuuuppiippiiiiiiiipiiiiiiuuuppiippppiiet9422",
"*=16eipsddddddddsffsfsfsdddddddddddddddddsdssdssdddddddddpiw61**",
"#$-6eisghhggdgggggggghggggggggggggggggggggggghggggggghhgddpw6-##",
"++&5qisghhhhghhgffhfhggggggggggggggggggggfgggfggghgghhhhgdiq5-++",
"++&5qisfhhgdddddffffffffffffffffddddffffffffffgfddddddggdsi0<-#+",
"##&50upssdspaaaaaaaaaaaaaaaaaaaaapspaaaaaaaaaaaaaapspsssapu0,&#+",
"+#&<0quiiiuuuuiuuuuuuuuuuuuuuuuuiuuiuuuuuuuuuuuuuuuuuuiiiuw0<-##",
"##-57qweuw000000u78u8u8utqq0000q080000q000qq00u8000000wwwq08,&#+",
"+#&-57808775555574<<<<<<<<4<5<<<5566166154<<4<<<555566800086,-##",
"+#&,58887<<,,<5,<>>>>>,,,,,,,,,,,1<1,,,>,,,,,,,,,,-,,,568866-&#+",
"##&,58888<,,,,,,>>>>>>;>;;>;>::>----->>>:::>>;;>>>---<580006,-#+",
"+#-58qq0861-55655NNNNNNNNNNNNNNNNNNNNNNNNNNNNNNNNNNNNN8eeee85&@@",
"+#-50wuq0755<677NNNNNNNNNNNNNNNNNNNNNNNNNNNNNNNNNNNNNNNsaie05&#@",
"##-6quuq076<5788NNNNNNNNNNNNNNNNNNNNNNNNNNNNNNNNNNNNNNNNspuw6-#@",
"+#-7quiw065<5700NNNNNNNNNNNNNNNNNNNNNNNNNNNNNNNNNNNNNNNNfsiw6-#@",
"##-6quuq086<6800NNNNNNNNNNNNNNNNNNNNNNNNNNNNNNNNNNNNNNNNdsiw5-##",
"+#-6wiuu08615600NNNNNNNNNNNNNNNNNNNNNNNNNNNNNNNNNNNNNNNNgsiw5-#@",
"+#-7qiiq086<6680NNNNNNNNNNNNNNNNNNNNNNNNNNNNNNNNNNNNNNNNgsiw7-#@",
"##-6quue08<<6600NNNNNNNNNNNNNNNNNNNNNNNNNNNNNNNNNNNNNNNNdsie5-#@",
"+#-6wuue085<6600NNNNNNNNNNNNNNNNNNNNNNNNNNNNNNNNNNNNNNNNgaiw5-##",
"##-6wuue085<6700NNNNNNNNNNNNNNNNNNNNNNNNNNNNNNNNNNNNNNNNgaiw5-#+",
"##-6wuuew65<6680NNNNNNNNNNNNNNNNNNNNNNNNNNNNNNNNNNNNNNNNgaiw5-##",
"##-6wuuew6<<6700NNNNNNNNNNNNNNNNNNNNNNNNNNNNNNNNNNNNNNNNdaiw5-#@",
"+#-7wiueq6156600NNNNNNNNNNNNNNNNNNNNNNNNNNNNNNNNNNNNNNNNdsiw5-&@",
"##-6quueq86,6700NNNNNNNNNNNNNNNNNNNNNNNNNNNNNNNNNNNNNNNNdsiw5-#@",
"+#-6wuueq7666700NNNNNNNNNNNNNNNNNNNNNNNNNNNNNNNNNNNNNNNNdsiw5-#@",
"+#-7wuueq86,5780NNNNNNNNNNNNNNNNNNNNNNNNNNNNNNNNNNNNNNNNdsie5-#@",
"@#-6wpee07655800NNNNNNNNNNNNNNNNNNNNNNNNNNNNNNNNNNNNNNNNhsiq5-##",
"@#-6weue06666780NNNNNNNNNNNNNNNNNNNNNNNNNNNNNNNNNNNNNNNNfsiq5:#+",
"@#-6wepew75-5780NNNNNNNNNNNNNNNNNNNNNNNNNNNNNNNNNNNNNNNNfsiq6-##",
"@#-6eueew7556700NNNNNNNNNNNNNNNNNNNNNNNNNNNNNNNNNNNNNNNNfsiq5-#+",
"@#-7wueet7666700NNNNNNNNNNNNNNNNNNNNNNNNNNNNNNNNNNNNNNNNdsiw5-##",
"##-7euueq76,6780NNNNNNNNNNNNNNNNNNNNNNNNNNNNNNNNNNNNNNNNfaiw5>#@",
"##-6weeeq7155700NNNNNNNNNNNNNNNNNNNNNNNNNNNNNNNNNNNNNNNNfsiq7-#@",
"@#-6wpeeq6555600NNNNNNNNNNNNNNNNNNNNNNNNNNNNNNNNNNNNNNNNfsie5-#@",
"@#-7wuuww7455780NNNNNNNNNNNNNNNNNNNNNNNNNNNNNNNNNNNNNNNNfsiq7-##",
"@#-6wiuuw75,5700NNNNNNNNNNNNNNNNNNNNNNNNNNNNNNNNNNNNNNNNfaiq5:##",
"@#-60uuwq75<5700NNNNNNNNNNNNNNNNNNNNNNNNNNNNNNNNNNNNNNNNfaiq5-#+",
"+#-7wuuuw7<<5800NNNNNNNNNNNNNNNNNNNNNNNNNNNNNNNNNNNNNNNNgsiq5-##",
"##-6wuuuw74<5700NNNNNNNNNNNNNNNNNNNNNNNNNNNNNNNNNNNNNNNNgaiw5-##",
"+#-6wuuww75<5880NNNNNNNNNNNNNNNNNNNNNNNNNNNNNNNNNNNNNNNNgaiw5-##",
"##-6wuueq75<5800NNNNNNNNNNNNNNNNNNNNNNNNNNNNNNNNNNNNNNNNfaiq5&#+",
"+#-6wuueq66<5780NNNNNNNNNNNNNNNNNNNNNNNNNNNNNNNNNNNNNNNNgsie5-##",
"##-8wuue08155700NNNNNNNNNNNNNNNNNNNNNNNNNNNNNNNNNNNNNNNNfsiq5-##",
"+#-6euue076<5700NNNNNNNNNNNNNNNNNNNNNNNNNNNNNNNNNNNNNNNNfsiq5>#+",
"##-6euueq8666700NNNNNNNNNNNNNNNNNNNNNNNNNNNNNNNNNNNNNNNNgsie6-##",
"##-6euiuw861680wNNNNNNNNNNNNNNNNNNNNNNNNNNNNNNNNNNNNNNNNgsie7-#+",
"+#-6wuuuq8716700NNNNNNNNNNNNNNNNNNNNNNNNNNNNNNNNNNNNNNNNhsie5-#@",
"+#-60wwq87,,5577NNNNNNNNNNNNNNNNNNNNNNNNNNNNNNNNNNNNNNNNaie05-#@",
"##&,6676<>>&->5,NNNNNNNNNNNNNNNNNNNNNNNNNNNNNNNNNNNNNNNNe085,-##",
"###-,<,-;*%$$&&-NNNNNNNNNNNNNNNNNNNNNNNNNNNNNNNNNNNNNNNN55,>-$#@",
"@#$%;;;;@@O@%%%%NNNNNNNNNNNNNNNNNNNNNNNNNNNNNNNNNNNNNNNN:;;;%%@@",
"@@@#O@OOOOOOXOOXNNNNNNNNNNNNNNNNNNNNNNNNNNNNNNNNNNNNNNNN%@@@@@@@",
"+OOOXXXXXX. .XXNNNNNNNNNNNNNNNNNNNNNNNNNNNNNNNNNNNNNNNNNNoooOOO@",
"OOXX..         NNNNNNNNNNNNNNNNNNNNNNNNNNNNNNNNNNNNNNNNNN  ..oOo",
"..... NNNNNNNNNNNNNNNNNNNNNNNNNNNNNNNNNNNNNNNNNNNNNNNNNNNN  ...X",
".  .NNNNNNNNNNNNNNNNNNNNNNNNNNNNNNNNNNNNNNNNNNNNNNNNNNNNNNNN . .",
"    NNNNNNNNNNNNNNNNNNNNNNNNNNNNNNNNNNNNNNNNNNNNNNNNNNNNNNNN    ",
"    NNNNNNNNNNNNNNNNNNNNNNNNNNNNNNNNNNNNNNNNNNNNNNNNNNNNNNNN    "
};
