/* XPM */
static char *result[] = {
/* columns rows colors chars-per-pixel */
"64 64 215 2 ",
"   c #020101",
".  c #0A0604",
"X  c #0D0906",
"o  c #03050B",
"O  c #0D0B0A",
"+  c #07080F",
"@  c #120B06",
"#  c #150E09",
"$  c #190F09",
"%  c #110605",
"&  c #1C120B",
"*  c #1C1007",
"=  c #0B0E1A",
"-  c #070B14",
";  c #0D111E",
":  c #0C1016",
">  c #1B1514",
",  c #15141D",
"<  c #1B1719",
"1  c #100F15",
"2  c #22150C",
"3  c #25190F",
"4  c #29190F",
"5  c #241912",
"6  c #2D1C11",
"7  c #261A16",
"8  c #321E12",
"9  c #352114",
"0  c #3D2516",
"q  c #33231B",
"w  c #3B2619",
"e  c #3C291B",
"r  c #2F201A",
"t  c #0A1424",
"y  c #111524",
"u  c #161A2D",
"i  c #191C2F",
"p  c #1C1820",
"a  c #171B31",
"s  c #191C32",
"d  c #111F3C",
"f  c #241D22",
"g  c #1E2330",
"h  c #2D2324",
"j  c #282626",
"k  c #312627",
"l  c #342D25",
"z  c #3B2B22",
"x  c #3D352D",
"c  c #292B37",
"v  c #383236",
"b  c #402717",
"n  c #412817",
"m  c #442B1A",
"M  c #492E1C",
"N  c #4D321E",
"B  c #52351E",
"V  c #57371D",
"C  c #422E22",
"Z  c #4D3322",
"A  c #463429",
"S  c #523621",
"D  c #563923",
"F  c #593B24",
"G  c #553C2C",
"H  c #5B3E2A",
"J  c #523729",
"K  c #493B37",
"L  c #503C34",
"P  c #5C4334",
"I  c #564439",
"U  c #554338",
"Y  c #544034",
"T  c #63422D",
"R  c #6C482F",
"E  c #664631",
"W  c #6C4A33",
"Q  c #674A37",
"!  c #724C34",
"~  c #724F3A",
"^  c #6C523B",
"/  c #74513B",
"(  c #7A543D",
")  c #715337",
"_  c #15284D",
"`  c #132C53",
"'  c #2A3857",
"]  c #212944",
"[  c #1A3663",
"{  c #1A3B78",
"}  c #213E68",
"|  c #463E40",
" . c #37445D",
".. c #1D417E",
"X. c #38486A",
"o. c #354C73",
"O. c #3F5378",
"+. c #284373",
"@. c #4D4241",
"#. c #4C464C",
"$. c #574C45",
"%. c #5F5754",
"&. c #554E4D",
"*. c #604F49",
"=. c #625149",
"-. c #6A5849",
";. c #7E5A43",
":. c #765844",
">. c #6B5C5D",
",. c #7B614A",
"<. c #746453",
"1. c #7B6B58",
"2. c #6C6050",
"3. c #46526C",
"4. c #455678",
"5. c #414D67",
"6. c #645F66",
"7. c #5F6275",
"8. c #6B676F",
"9. c #766B6B",
"0. c #6C6771",
"q. c #6E6870",
"w. c #7A7174",
"e. c #835C43",
"r. c #865E46",
"t. c #8B6146",
"y. c #8C6249",
"u. c #86614B",
"i. c #91664C",
"p. c #95694E",
"a. c #9B6C4E",
"s. c #866B58",
"d. c #9B6E52",
"f. c #956B50",
"g. c #8C735B",
"h. c #9E7155",
"j. c #98765B",
"k. c #A27356",
"l. c #A47659",
"z. c #AB7A5D",
"x. c #A6785C",
"c. c #B07E5F",
"v. c #897664",
"b. c #947B65",
"n. c #937B76",
"m. c #A47B65",
"M. c #AD7E61",
"N. c #B17F61",
"B. c #99846D",
"V. c #9E8D77",
"C. c #AD8669",
"Z. c #B18364",
"A. c #B48B6D",
"S. c #B58769",
"D. c #A38E75",
"F. c #B48E71",
"G. c #A69279",
"H. c #AA947A",
"J. c #B99374",
"K. c #B8987A",
"L. c #1F4A8B",
"P. c #385688",
"I. c #234D95",
"U. c #29569A",
"Y. c #335D9D",
"T. c #305897",
"R. c #2A4E89",
"E. c #3A619B",
"W. c #2659A7",
"Q. c #255EB3",
"!. c #2964B5",
"~. c #2965BA",
"^. c #386DB7",
"/. c #3663A5",
"(. c #566C91",
"). c #647089",
"_. c #777A8D",
"`. c #767E9A",
"'. c #767B92",
"]. c #647598",
"[. c #5378AF",
"{. c #2768C1",
"}. c #837E8C",
"|. c #817984",
" X c #7B829B",
".X c #5D82B8",
"XX c #7387AD",
"oX c #86899C",
"OX c #96959C",
"+X c #95908E",
"@X c #AF9B81",
"#X c #A29687",
"$X c #B29D82",
"%X c #BC9E81",
"&X c #B6A186",
"*X c #BDA385",
"=X c #BBA689",
"-X c #BEA98C",
";X c #848BA2",
":X c #8D93A9",
">X c #9498AA",
",X c #8598B8",
"<X c #989EB0",
"1X c #9EA3B3",
"2X c #A5A9B7",
"3X c #C2AB8E",
"4X c #C3A788",
"5X c #C2AE91",
"6X c #C8AF90",
"7X c #C5B193",
"8X c #CBB596",
"9X c #CEB899",
"0X c #D3BC9C",
"qX c #D7C09F",
"wX c None",
/* pixels */
"wXwXwXwXwXwXwXwXwXwXwXwXwXwXwXwX                          wXwXwX            wXwXwXwXwXwXwXwXwXwXwXwXwXwXwXwXwXwXwXwXwXwXwXwXwXwX",
"wXwXwXwXwXwXwXwXwXwXwXwXwXwXwXwX                          wXwXwX.           wXwXwXwXwXwXwXwXwXwXwXwXwXwXwXwXwXwXwXwXwXwXwXwXwXwX",
"wXwXwXwXwXwXwXwXwXwXwXwXwXwXwXwX    . @ $ $ $ # $ # # @ . wXwXwX# # # .       wXwXwXwXwXwXwXwXwXwXwXwXwXwXwXwXwXwXwXwXwXwXwXwXwX",
"wXwXwXwXwXwXwXwXwXwXwXwXwXwXwXwX    O & 9 9 e 9 9 6 3 2 # . . # 3 6 3 #                 wXwXwXwXwXwXwXwXwXwXwXwXwXwXwXwXwXwXwXwX",
"wXwXwXwXwXwXwXwXwXwXwXwXwXwXwXwX    # 6 e N B N M m 0 9 2 X . & 9 m 0 3 .                 wXwXwXwXwXwXwXwXwXwXwXwXwXwXwXwXwXwXwX",
"wXwXwXwXwXwXwXwXwXwXwXwXwXwXwXwX    # 3 e N V Y Y V N e 4 * $ 3 e S M 6 $ X X X O # # # @ wXwXwXwXwXwXwXwXwXwXwXwXwXwXwXwXwXwXwX",
"wXwXwXwXwXwXwXwXwXwXwXwXwXwXwXwX    . # 3 9 e V V V V M 0 6 3 9 N S N 9 4 3 3 6 6 6 9 3 > @   wXwXwXwXwXwXwXwXwXwXwXwXwXwXwXwXwX",
"wXwXwXwXwXwXwXwXwXwXwXwXwXwXwXwX      . X 2 e N V Y V B m 0 9 m N D B m 0 9 e m M N N m 6 $     wXwXwXwXwXwXwXwXwXwXwXwXwXwXwXwX",
"wXwXwXwXwXwXwXwXwXwXwXwXwXwXwXwX. . . . X & q N V F Y D N M m M B D S N m M B D D F F V e & X X wXwXwXwXwXwXwXwXwXwXwXwXwXwXwXwX",
"wXwXwXwXwXwXwXwXwXwXwXwXwXwXwX. $ * & 2 3 9 e N T F V D S B B B S D D N N N D D Y V T V M q 3 & @ wXwXwXwXwXwXwXwXwXwXwXwXwXwXwX",
"wXwXwXwXwXwXwXwXwXwXwXwXwX    @ 2 8 9 0 m m B V V V D D D D B D V V D S V V V F V Y V D N N e 6 $     wXwXwXwXwXwXwXwXwXwXwXwXwX",
"wXwXwXwXwXwXwXwXwXwXwXwXwX  X * 6 0 M N V Y V F V Y D D D D D D D Y D D V V Y F V D D D V T B e 3 # . wXwXwXwXwXwXwXwXwXwXwXwXwX",
"wXwXwXwXwXwXwXwXwXwXwXwXX @ & 4 w M B V F F F V V V V V D T V D D Y V F Y V F V Y V Y V V T D M 9 > & @ wXwXwXwXwXwXwXwXwXwXwXwX",
"wXwXwXwXwXwXwXwXwXwX  . @ 2 8 0 m B S Y F F F Y D Y V T F D D D V V V Y F V V Y F V D D F V V V N e 9 & .   wXwXwXwXwXwXwXwXwXwX",
"wXwXwXwXwXwXwXwXwXwX    $ 6 0 M B S V F V Y D D D D V Y F D F D V V D D V D D D V D Y V F V V F V V e & .   wXwXwXwXwXwXwXwXwXwX",
"wXwXwXwXwXwXwXwXwXwX  . @ 8 n M B V T F V V S B B B V V D D D D T V D S B B N N B B V V V Y F F T F e 3 X   wXwXwXwXwXwXwXwXwXwX",
"wXwXwXwXwXwXwXwXwXwX  . $ 6 n N S D F F F D N N N N B D D D D F F D S N M M m m M M S S D D F F V V e & .   wXwXwXwXwXwXwXwXwXwX",
"wXwXwXwXwXwXwXwXwXwX    * 4 b M B S D D D B N m n N S D F D D D F D S M m n n m M S D F F F D D Y V e 3 .   wXwXwXwXwXwXwXwXwXwX",
"wXwXwXwXwXwXwXwXwXwX    $ 6 0 M N N S S S N m n m N B D F D D F F D B m b m N F T T R R T D S S Y V m 6 $ X . wXwXwXwXwXwXwXwXwX",
"wXwXwXwXwXwXwXwXwXwX  . * 6 0 m m M M M M m m n m N B D F D F F F D B m b M H ~ e.t.r.e.! F M M B V N e 6 2 # .   wXwXwXwXwXwXwX",
"wXwXwXwXwXwXwXwXwXwX  . * 6 b n m n m m n n b b m N N F F D D D D S S M M D ~ i.k.z.l.a.e.H M M N V N m e 6 & .   wXwXwXwXwXwXwX",
"wXwXwXwXwXwXwXwXwXwX    $ 4 b n m m n b n b 0 b n M B D F F D D S S S S F R r.k.c.c.c.k.r.! H S B V V N n 8 & .     wXwXwXwXwXwX",
"wXwXwXwXwXwXwXwXwXwX    $ 6 b M M M M m b 0 0 0 n N S D F D D B M M S E ( r.a.l.c.c.c.x.a.y.:.W T N M m n 8 * .     wXwXwXwXwXwX",
"wXwXwXwXwXwXwXwXwXwX  . * 6 b M B B N M b b b 0 m N S D F F D N M M F ( i.k.z.z.z.z.c.z.x.k.p.e.T M e 0 0 9 & .     wXwXwXwXwXwX",
"wXwXwXwXwXwXwXwXwXwX    $ 4 b M S D S M m m N Z S S S S D D D B S S T :.y.h.x.m.Z.S.Z.m.z.h.i./ F b 8 b b 8 & .     wXwXwXwXwXwX",
"wXwXwXwXwXwXwXwXwXwX  . $ 6 b M S S D S N S T W W T S M N S D T E ! ! ! ~ e.j.N.J.K.J.F.b.u.W J w 4 4 8 0 8 & .     wXwXwXwXwXwX",
"wXwXwXwXwXwXwXwXwXwX    $ 6 b M S D D B V T ( t.r.W D m m B H W e.y.e.P J L s.D.*X4X4XH.g.Q C 7 $ @ & 6 0 8 2 .     wXwXwXwXwXwX",
"wXwXwXwXwXwXwXwXwXwX  . $ 4 0 M B S S S F R e.h.d.e.T Z M B F / p.k.r.J 8 A :.#X5X9X5X@Xs.L 5 %   . @ 2 8 4 & .   wXwXwXwXwXwXwX",
"wXwXwXwXwXwXwXwXwXwX    * 6 b M M B B S D W t.k.x.p.( R F N S / j.C.s.G 7 k 2.H.5X9X8X@Xs.A $ .     . * 2 2 @ .   wXwXwXwXwXwXwX",
"wXwXwXwXwXwXwXwXwXwX  . $ 8 b m m M M B D R r.h.z.l.f.r.R S S ^ b.F.b.P r C -.G.5X9X7X@X9.A & .       . X @ @ wXwXwXwXwXwXwXwXwX",
"wXwXwXwXwXwXwXwXwXwX  . $ 6 9 0 b n m M S R e.h.z.N.z.d.e.P H -.B.K.n.-.C J <.@X5X8X7X$Xg.I 8 # .           wXwXwXwXwXwXwXwXwXwX",
"wXwXwXwXwXwXwXwXwXwX    @ 2 6 8 8 m n M B T e.k.c.N.N.z.i.;.:.g.G.&XG.s.*.-.v.@X5X8X6X&XB.<.U l > .         wXwXwXwXwXwXwXwXwXwX",
"wXwXwXwXwXwXwXwXwXwXwXwXX @ # 3 8 b n b M H ( k.c.Z.Z.z.x.B.B.G.&X=X$XV.B.B.G.&X5X5X5X=X$XV.v.$.j X     wXwXwXwXwXwXwXwXwXwXwXwX",
"wXwXwXwXwXwXwXwXwXwXwXwXwX  . # 4 b b b m F ( p.l.c.z.z.C.J.&X=X-X-X-X=X&X&X=X-X5X5X5X-X3X=XH.<.x O   wXwXwXwXwXwXwXwXwXwXwXwXwX",
"wXwXwXwXwXwXwXwXwXwXwXwXwX    # * 8 8 8 b S R e.p.a.x.Z.F.K.4X4X-X5X5X5X7X7X7X-X5X5X5X5X6X6XK.1.x O   wXwXwXwXwXwXwXwXwXwXwXwXwX",
"wXwXwXwXwXwXwXwXwXwXwXwXwXwXwX. % $ 2 8 b M D E ( y.k.Z.S.F.K.K.-X5X7X7X7X7X7X7X5X5X5X4X4X4XA.;.z O   wXwXwXwXwXwXwXwXwXwXwXwXwX",
"wXwXwXwXwXwXwXwXwXwXwXwXwXwXwXwX  . $ 4 0 n m M F ( a.x.z.Z.Z.F.K.=X5X5X-X5X3X3X3X5X3X=X%XF.l.^ e O   wXwXwXwXwXwXwXwXwXwXwXwXwX",
"wXwXwXwXwXwXwXwXwXwXwXwXwXwXwXwX    % & 6 9 8 b B E e.p.k.l.z.S.K.*X*X*X=X*X*X*X*X4X*X%XF.j.;.P q X   wXwXwXwXwXwXwXwXwXwXwXwXwX",
"wXwXwXwXwXwXwXwXwXwXwXwXwXwXwXwXwXwX. @ $ 2 8 8 m S T ( t.k.z.Z.A.J.F.J.J.F.J.J.J.J.K.C.g.^ J z 5 wXwXwXwXwXwXwXwXwXwXwXwXwXwXwX",
"wXwXwXwXwXwXwXwXwXwXwXwXwXwXwXwXwXwXwX. % % 4 8 m M Z F ) p.z.Z.Z.Z.Z.Z.Z.Z.Z.Z.Z.S.S.j.:.C 5 @ wXwXwXwXwXwXwXwXwXwXwXwXwXwXwXwX",
"wXwXwXwXwXwXwXwXwXwXwXwXwXwXwXwXwXwXwX    X 2 9 n 0 n N T e.a.l.x.m.m.m.m.m.m.m.m.l.h.r.P 6     wXwXwXwXwXwXwXwXwXwXwXwXwXwXwXwX",
"wXwXwXwXwXwXwXwXwXwXwXwXwXwXwXwXwXwXwX    . 2 8 n 0 0 n F ! t.s.v.n.n.n.n.n.n.n.n.s.r.W m &     wXwXwXwXwXwXwXwXwXwXwXwXwXwXwXwX",
"wXwXwXwXwXwXwXwXwXwXwXwXwXwXwXwXwXwXwX    % 2 9 n 0 0 n B F R -.9.|.}.}.}.}.}.}.n.>.*.Z 8 @     wXwXwXwXwXwXwXwXwXwXwXwXwXwXwXwX",
"wXwXwXwXwXwXwXwXwXwXwXwXwXwXwXwXwXwXwX    . 2 8 0 M n m M V T =.q._.oX`.'.`.;X`.).6.L 8 2 X     wXwXwXwXwXwXwXwXwXwXwXwXwXwXwXwX",
"wXwXwXwXwXwXwXwXwXwXwXwXwXwXwXwXwXwXwX    . * 6 0 e M M M M Y *.0.'.`.`.`.`.;X;X|.6.L b & %     wXwXwXwXwXwXwXwXwXwXwXwXwXwXwXwX",
"wXwXwXwXwXwXwXwXwXwXwXwXwXwXwXwXwXwXwX      * 8 e M N B V V Y $.0._.`.`.`.}.:X>XoX9.L 8 * .     wXwXwXwXwXwXwXwXwXwXwXwXwXwXwXwX",
"wXwXwXwXwXwXwXwXwXwXwXwXwXwXwXwXwXwXwXO O 1 6 n M Z V F V V Y ^ 0._.`.`.`.;X>X<XOX9.H b 4 $ % . wXwXwXwXwXwXwXwXwXwXwXwXwXwXwXwX",
"wXwXwXwXwXwXwXwXwXwXwXwXwXwXwXwXwXwX7 l x Y I ^ ^ E T V V V T =.0._.;X;X:X>X1X2XOX9.L C 8 n z q 5 wXwXwXwXwXwXwXwXwXwXwXwXwXwXwX",
"wXwXwXwXwXwXwXwXwXwXwXwXwXwXwXwXwXX j I 1.B.B.B.1.,.E D V V V =.8.'.oX:X<X1X2X2XOX9.L M S Q W G q X wXwXwXwXwXwXwXwXwXwXwXwXwXwX",
"wXwXwXwXwXwXwXwXwXwXwXwXwXwXwXwX  o l 2.V.$X-X=XG.g.) F V V F *.8. X X:X<X1X2X2XOXq.I Z E r.i.~ l .   wXwXwXwXwXwXwXwXwXwXwXwXwX",
"wXwXwXwXwXwXwXwXwXwXwXwXwXwXwXwX  X l <.$X8XqX7XK.g.) D M V T $.7.].XXXX,X,X,X,X X6.L Z ! a.k.:.z X   wXwXwXwXwXwXwXwXwXwXwXwXwX",
"wXwXwXwXwXwXwXwXwXwXwXwXwXwXwXwX  O l <.&XqXqX7XK.B.) D B B Y &.(.(.[.[..X.X.X.X(.3.K S ! a.l.:.e X   wXwXwXwXwXwXwXwXwXwXwXwXwX",
"wXwXwXwXwXwXwXwXwXwXwXwXwXwXwXwX  . l <.G.-X8X-XH.B.^ Y V V Y #.O./.^.^.^.^.^.^.E.X.v Z R i.d./ z X   wXwXwXwXwXwXwXwXwXwXwXwXwX",
"wXwXwXwXwXwXwXwXwXwXwXwXwXwXwXwX  O j =.v.#X#X#XV.1.%.U U U &.X.R.W.!.~.!.~.{.~.W.X.c w D / ;.P k O   wXwXwXwXwXwXwXwXwXwXwXwXwX",
"wXwXwXwXwXwXwXwXwXwXwXwXwXwXwXwXwX: j x $.%.0.).(.(.4.O.o.o.O.P.I.W.W.Q.~.~.~.~.W.[ j 5 8 m A z 7 1 + wXwXwXwXwXwXwXwXwXwXwXwXwX",
"wXwXwXwXwXwXwXwXwXwXwXwXwXwXwXwXwXt , > < c ' o.T.Y.Y.Y././.Y.U.I.I.I.W.!.~.~.!.U.[ u X % @ > > , y wXwXwXwXwXwXwXwXwXwXwXwXwXwX",
"wXwXwXwXwXwXwXwXwXwXwXwXwXwXwXwXwXwX= o   = d [ ..P.T.T.U.U.I.L.L.{ ..R.U.Y./.Y.R.` y       o + ; u wXwXwXwXwXwXwXwXwXwXwXwXwXwX",
"wXwXwXwXwXwXwXwXwXwXwXwXwXwXwXwXwXwX=     o y ] ' X.X.X.o.+.[ ` _ _ ` ' X.X.3.o. .g :       o - y wXwXwXwXwXwXwXwXwXwXwXwXwXwXwX",
"wXwXwXwXwXwXwXwXwXwXwXwXwXwXwXwXwXa = o   . < h x K U  .c g t t - = y j v K | @.K j #     - = y u wXwXwXwXwXwXwXwXwXwXwXwXwXwXwX",
"wXwXwXwXwXwXwXwXwXwXwXwXwXwXwXs wXu ; + o X & q C Z S A q > o     o O 5 q m Z J C r @ o + ; u wXwXa s s wXwXwXwXwXwXwXwXwXwXwXwX",
"wXwXwXwXwXwXwXwXwXwXwXwXwXwXwXs s a y - + # 5 8 w C C m r $ o   . o # 5 8 z m C e 7 > + = y wXwXwXs s a s wXwXwXwXwXwXwXwXwXwXwX",
"wXwXwXwXwXwXwXwXwXwXwXwXwXwXwXs s a u y ; y p f h h k h f , 1 = = = , 7 f f k k h f y , y a wXwXwXs s s s wXwXwXwXwXwXwXwXwXwXwX",
"wXwXwXwXwXwXwXwXwXwXwXwXwXwXwXs s s a a a u s i g s s g s i u a u u i s s g g s s i a a u a a s a s a s wXwXwXwXwXwXwXwXwXwXwXwX",
"wXwXwXwXwXwXwXwXwXwXwXwXwXwXwXs a s wXwXwXwXwXwXwXwXwXwXwXwXwXwXwXwXwXwXwXwXwXwXwXwXwXwXwXwXs s s s a s wXwXwXwXwXwXwXwXwXwXwXwX"
};
