/* XPM */
static char *result[] = {
/* columns rows colors chars-per-pixel */
"64 64 62 1 ",
"  c #0E1117",
". c #12151D",
"X c #151922",
"o c #191D27",
"O c #1A1E29",
"+ c #1D212D",
"@ c #1F2331",
"# c #20242F",
"$ c #212633",
"% c #232936",
"& c #262B3A",
"* c #292E3D",
"= c #2A303F",
"- c #292F40",
"; c #2C3344",
": c #2E354A",
"> c #303647",
", c #30374A",
"< c #323A4D",
"1 c #383F4E",
"2 c #353D53",
"3 c #383F51",
"4 c #373F58",
"5 c #39404F",
"6 c #374056",
"7 c #394155",
"8 c #374058",
"9 c #3B445C",
"0 c #3F485E",
"q c #3E4761",
"w c #3F4862",
"e c #41495D",
"r c #414B65",
"t c #444E69",
"y c #495267",
"u c #46516D",
"i c #48536E",
"p c #4A5572",
"a c #4E5976",
"s c #4F5A78",
"d c #515B75",
"f c #525D7B",
"g c #55607E",
"h c #59647E",
"j c #566281",
"k c #596585",
"l c #5D6985",
"z c #5B6788",
"x c #5D6A8A",
"c c #616C87",
"v c #616D8C",
"b c #66718E",
"n c #616F90",
"m c #657292",
"M c #697695",
"N c #6C7896",
"B c #697799",
"V c #6D7A9A",
"C c #717E9D",
"Z c #74819F",
"A c #7481A0",
"S c None",
/* pixels */
"SS&;,,,>*#X..+$$#$%=>>,>;;&%*>;*#..O%=>>,>==&=;;>,>=%&->-=@++@%%",
"SS=,331<>&OXO%*&&*=><17<<>;=><<=$oo#&;1771>;;;;171<;**<55-%@+&==",
"%*<7rre03>%$*><2<<77eeree7<<3e03;%&>170er09877eeere7117096-=-555",
"=<7ydfdate<,3rtttyupadddauyruppt7><7riafgapipppdffaurtipiy7670yy",
">1edcvnzgi09rdjkjjkkxxvvlgdaflzfy90ugjxbmnzzkklxvvxfdsjzjdiwiafg",
",1rfmBBnxsytakvmmvvmMMMNmxgfkxxkitufkbMBBBmmmvmMBNnlfjxxnhdpsgkh",
",<rfnBBBxjapjxMBBMMNBNVVMxgfjxvkapajnmVACCVNMMMNVCMxjgzvnkgfgjkk",
">1efmBBmvzggzmVVCVVNNNNNmlkfjxxkfafxmBZZAAACVNNNVNmxjkzvvvljjhkh",
"55yhmBNmxzggxMVZZZNMbbMbbvkkzzzjfagvMVAAAAAANMbbMMblllxmnncxlhgf",
"55yhNZBnxjgglMVZZZNvhhhhlvvxnzzjdagxMZAAAAAVMbchhhccbbMNZVNmlgsa",
"5edhZZNnzgaakmVAZNbhdidghvmBBnzjpialMVVZZZABbhgpddhcMNZZZZVblfiu",
"5eyhMmmlgapphnBVNMxdyyyahcBBBzjjpuakmBVVBVBmhgyyyyhcNZAAZZNbhaww",
"55ydvvlfsiupfxmmmxgprruphcbmnzjjurpgvmmmmbxxgputyiglMVZVNMmzfu09",
"550yfgsiuuwuskvxkfaurruafkxxzjwwwwuszvxxzjjspiuuyiglMBMnxzjsy066",
";>50paiw0wwwpfjjfaurrruadgjjjwww00wajzzjsspuuutwyuagxnxzjfspq8<<",
"*;<7wiww9990uaffautq00ttadffjwwq68wpsfsaapuuwwwwwrigjkjgapwwq82:",
"%*;6wwww8888wwjwawwwq8qwwjwswwq844qwppppwpjwwq9990wpaaaapwwww22:",
"@@-59wqq4244wwwjjwww888qwwpppwq8:444uuuupwwwwq44689wipiiawwwq2::",
"++@<8q9822:2qwwwwwww44449wpwwww82:24qwwuppwwww942289wwwuwpww42::",
".+@>8q982:::8wpajjww84228wwwwww9:::244wppjjjjwwq2<29wwuwwwww822:",
"  +=8w082:;;2qwawjjww94249wwwww44::::4wsjjjspwww222qqwwuwwww8842",
" +@:9www82::2waajjjwww9qqwwpspww42::44usjjjjjjwwq4qwuiiipppwwwq8",
"++=8uaaiwq889wsjjjwjjwwwwjsjjssptw444wwpsjsjjwpwwtipssssjsjpjwwa",
"%*5wsjgfjwqwwwwsjwjawwjzjjjzjzjsputwwwuppsspppppssjjzzzjjjjjjjjj",
"=>5yfjjfsawwqwpawjwpppjjzzzzjjjjspuwwwtuaupauwpppjjzzjjjjjjjjjjj",
"*=5wafsawwqqqwwwwwwwwppjjjjjjjsppwwwwqwwwwwwwwwupjjjjjjjpjpjjajp",
"&=<9ipiiwq888qqqqqwwwwwjjjwwspppwww444qqqq99wqqwujppuupuwpppupwp",
"&&>8wpwwwq888888488qwwpwpwjwwwwwwwq444449944q99wuujppwtwwwwuuuwu",
"@%-0wapiwwwwwqwq44qwwppjppwpwwwwwwwwwwwwwq444wwwpuppuwwwwwuwpuuu",
"+%-0afssaspiwwww44wwwjjwjppwwwwwsssppttuwq44qwpujjpjawuwwwjjjaaa",
"+%;0sggfsaawaiww849wjwjjsswpwwppssssppppuw44qtpjjjjuauwwupajjpsa",
"%&50sgfssaapaipwq8qwjjjjpwwwpwppsssspppspw44wuujppjuuuwwwpjjjjap",
"--2wtjtjtjuujwpuqqwajpjjuwqqwuupsspppppppwq8tpssssuuwwwwupsssppu",
"-:4wjtjttuujwjuuwwwwwjwwwqqqwwuppppppuppptq8wuppuutwqqwwwupppuuw",
"--:qqwjqwtuuupuww9qwwwwwww4qwwwuupupupppptqqqwttwwqqqqqwuppppuww",
"@&:4qjutrtuwuwtwq449qw44q844qwqwwwwuuuppuwq88qq48444844qwwupwuww",
"+@-4tuuttrwrwuww944222222224qq48qqwtuppuuwq82222424448qqwwuuuwwq",
"+$-4wwutwwwwwwjwwq42<<224qqqwwqq8qwppssputwq42242288wwwwttptwwq4",
"%*,qtjjttwwwwjjuptq944qwwwupwuww8qwpssjsssttq88848wpssspspppw444",
"->2rrjttwwwrwjjjjauwqqwuspjjjpww8qwpzzzzjssuttwqqwpszzzzjfspw422",
">>2ripitwqqwpjjjjppwqqtpajjjspwwqqwpjzzzjssptttwwtsjznzzjjsuw44:",
"-;<riitrqqqqwjjjautqqqwupjjsjwwq88wpsjssspputtqqwwpfzzzjfspuw44:",
"*-,4rrtrq949wpjjptwq44wtpassppwq44wtpsppuuttwqqqwwtpsffsppuw44::",
"#%-2qrq99444qwuuttwq44qwwpwawwwq448wtputtttwtq884qwtupppuutq44:4",
"OO&,49944:224wtppptwq444qqwwwq942::4qwttppputwq44244wwuttwwq44::",
"XX@;2442::-:4qtppapw442229qqqq84::::48tppsssptw44228qqwwwqq84:::",
" XO-29922:;;<qtpjaptq42228wwwqw9::-:24wpssjjstw82224qwwwwwqq44::",
"Xo$,rrrr42::4wupajapwq44wwpwawww442244tpsjfspptq888qtupuuuuuwq44",
"o+*9isaitq229tpdffaiwwwipasjjjawww999wwassffsswwwwpssjsffjsssppu",
"$&>rsjjfptq9rtpdsaaipaasjjzzzzjjaiwwwwpasaaswwaapsszzzzzzzzzzfff",
"&*<rsjjfptq4qtipaaiiwpssjjjzjzjjaiwwwwwpawswpwwsssjzzzzjjzjjjfjf",
"*=1rpsapurq44rttwiwwwaajjjjsajaapwwq99wwwwwwwwwassjsjssssppsssss",
"*><9tpiurr444qqqwwwwwipssssppwwawwwq99qqwwww9qwwpsfspppuupwuuupp",
"&*,etpptrre4qqq4889qwwpffpawpwawwiwqww9qww9q9qwwsssspuuuwwpuupuu",
"$%>7tpppurrqqqq4889wiiasspipwwwwwiwwwwwwq88699wapssppuwwwuuppppp",
"O$>4psdapitrrrr4888wwpasspwwwwwappppwwwww88<qwwwsssppwwwwussssps",
"+$;9pffsppiuutr9688wisssaaiwwwwipappiiiuww888wwswsjwswwwwpsjsssp",
"%*,rdjfsapppppurwwwiaffsaawiwiipssfpppppjwq8wwasjsjjwswwwsfjjspp",
"*>3tdjsppppaappiwwwpfgfapwwwiippsfssppssjwwqwsjjjsjwwswwpsffsspp",
";>4rppputuuipppuwwwiaapiiwwwwwippppiiippwwqqwjwjjwwwwwqqwpspppww",
"&=,7re4444r4qr446<689ww996::<889000999wwq88:89qq89822:2288qqq888",
"$$&;,,,:;:::::,-&%&=:::::-&&*;;:>::::::::-&&--::::--&&---:::::::",
"+O#%&&&&&*&--&&%@+@@%%&&@@++@@@*@****=&*&@@++@@&&-@@@@@@@&-&&-&&",
"OOO#$$$$$$%%$%@@+X++@@&@@+oo+@@@@@@&@@&@@@OOO+@@@@@@OOOO@@@$@$@@"
};
